<?xml version="1.0" encoding="utf-8"?>
<!-- Generator: Adobe Illustrator 16.0.0, SVG Export Plug-In . SVG Version: 6.00 Build 0)  -->
<!DOCTYPE svg PUBLIC "-//W3C//DTD SVG 1.1//EN" "http://www.w3.org/Graphics/SVG/1.1/DTD/svg11.dtd">
<svg version="1.1" id="Layer_1" xmlns="http://www.w3.org/2000/svg" xmlns:xlink="http://www.w3.org/1999/xlink" x="0px" y="0px"
	 width="512px" height="512px" viewBox="-990.099 0 512 512" enable-background="new -990.099 0 512 512" xml:space="preserve">
<path d="M-648.623,235.049c-26.935,0-30.682,26.885-30.682,26.885h57.269C-622.035,261.934-621.67,235.049-648.623,235.049z"/>
<path d="M-778.552,261.934h-50.772v46.611h44.945c0.763,0,1.906,0.018,3.249,0c7.236-0.166,20.936-2.271,20.936-22.659
	C-760.194,261.693-778.552,261.934-778.552,261.934z"/>
<path d="M-730.797,47.021c-115.426,0-208.988,93.546-208.988,208.972c0,115.417,93.562,208.987,208.988,208.987
	c115.4,0,208.971-93.57,208.971-208.987C-521.826,140.574-615.404,47.021-730.797,47.021z M-686.813,175.425h71.939v21.466h-71.939
	V175.425z M-723.18,288.059c0,53.225-55.372,51.467-55.372,51.467h-50.772h-1.484h-38.488V165.156h38.488h1.484h50.772
	c27.557,0,49.321,15.225,49.321,46.42c0,31.196-26.604,33.186-26.604,33.186C-720.761,244.762-723.18,288.059-723.18,288.059z
	 M-588.593,285.206h-90.363c0,32.39,30.682,30.351,30.682,30.351c28.975,0,27.963-18.764,27.963-18.764h30.698
	c0,49.794-59.689,46.379-59.689,46.379c-71.591,0-66.983-66.658-66.983-66.658s-0.075-66.992,66.983-66.992
	C-578.714,209.521-588.593,285.206-588.593,285.206z"/>
<path d="M-766.228,214.286c0-18.142-12.324-18.142-12.324-18.142h-6.54h-44.232v38.904h47.623
	C-773.488,235.049-766.228,232.412-766.228,214.286z"/>
</svg>
