<?xml version="1.0" encoding="utf-8"?>
<!-- Generator: Adobe Illustrator 16.0.0, SVG Export Plug-In . SVG Version: 6.00 Build 0)  -->
<!DOCTYPE svg PUBLIC "-//W3C//DTD SVG 1.1//EN" "http://www.w3.org/Graphics/SVG/1.1/DTD/svg11.dtd">
<svg version="1.1" id="Layer_1" xmlns="http://www.w3.org/2000/svg" xmlns:xlink="http://www.w3.org/1999/xlink" x="0px" y="0px"
	 width="512px" height="512px" viewBox="930.387 0 512 512" enable-background="new 930.387 0 512 512" xml:space="preserve">
<circle cx="1179.387" cy="261.49" r="208.979"/>
<rect x="1088.611" y="214.64" fill="#FFFFFF" width="43.446" height="130.721"/>
<path fill="#FFFFFF" d="M1110.336,196.8h-0.285c-14.58,0-24.009-10.043-24.009-22.594c0-12.82,9.714-22.584,24.578-22.584
	c14.862,0,24.011,9.761,24.294,22.584C1134.914,186.753,1125.482,196.8,1110.336,196.8z"/>
<path fill="#FFFFFF" d="M1288.731,345.36h-43.446v-69.937c0-17.568-6.286-29.554-22.006-29.554c-12.005,0-19.158,8.083-22.293,15.89
	c-1.146,2.794-1.43,6.69-1.43,10.596v73.004h-43.455c0,0,0.57-118.455,0-130.721h43.45v18.518
	c5.771-8.902,16.089-21.593,39.157-21.593c28.592,0,50.022,18.691,50.022,58.838V345.36L1288.731,345.36z"/>
</svg>
