<?xml version="1.0" encoding="utf-8"?>
<!-- Generator: Adobe Illustrator 16.0.0, SVG Export Plug-In . SVG Version: 6.00 Build 0)  -->
<!DOCTYPE svg PUBLIC "-//W3C//DTD SVG 1.1//EN" "http://www.w3.org/Graphics/SVG/1.1/DTD/svg11.dtd">
<svg version="1.1" xmlns="http://www.w3.org/2000/svg" xmlns:xlink="http://www.w3.org/1999/xlink" x="0px" y="0px" width="197px"
	 height="178.125px" viewBox="0 0 197 178.125" enable-background="new 0 0 197 178.125" xml:space="preserve">
<g id="Layer_3" display="none">
</g>
<g id="Layer_8">
	<path fill="#FFFFFF" stroke="#000000" stroke-width="4" stroke-miterlimit="10" d="M194,167.293c0,4.878-4.477,8.832-10,8.832H11
		c-5.523,0-10-3.954-10-8.832V10.957c0-4.878,4.477-8.832,10-8.832h173c5.523,0,10,3.954,10,8.832V167.293z"/>
	<line fill="none" stroke="#000000" stroke-width="4" stroke-miterlimit="10" x1="0" y1="25.125" x2="193" y2="25.125"/>
</g>
<g id="Capa_1">
</g>
<g id="Layer_1">
	<circle cx="12.944" cy="13.235" r="3.61"/>
	<circle cx="22.944" cy="13.235" r="3.61"/>
	<circle cx="32.944" cy="13.235" r="3.61"/>
</g>
<g id="Your_Icon">
</g>
<g id="Слой_1">
</g>
<g id="Calque_1">
	<g>
		<defs>
			<path id="SVGID_3_" d="M197,171.125c0,2.762-2.238,5-5,5H9c-2.762,0-5-2.238-5-5v-141c0-2.762,2.238-5,5-5h183
				c2.762,0,5,2.238,5,5V171.125z"/>
		</defs>
		<clipPath id="SVGID_2_">
			<use xlink:href="#SVGID_3_"  overflow="visible"/>
		</clipPath>
		<g clip-path="url(#SVGID_2_)">
			<path fill="none" stroke="#000000" stroke-width="2" stroke-miterlimit="10" d="M92,113.125c0,2.762-2.238,5-5,5H55
				c-2.762,0-5-2.238-5-5v-62c0-2.762,2.238-5,5-5h32c2.762,0,5,2.238,5,5V113.125z"/>
			<path fill="none" stroke="#000000" stroke-width="2" stroke-miterlimit="10" d="M92,178.125c0,2.762-2.238,5-5,5H55
				c-2.762,0-5-2.238-5-5v-49c0-2.762,2.238-5,5-5h32c2.762,0,5,2.238,5,5V178.125z"/>
			<path fill="none" stroke="#000000" stroke-width="2" stroke-miterlimit="10" d="M141,90.125c0,2.762-2.238,5-5,5h-32
				c-2.762,0-5-2.238-5-5v-39c0-2.762,2.238-5,5-5h32c2.762,0,5,2.238,5,5V90.125z"/>
			<path fill="none" stroke="#000000" stroke-width="2" stroke-miterlimit="10" d="M141,149.125c0,2.762-2.238,5-5,5h-32
				c-2.762,0-5-2.238-5-5v-43c0-2.762,2.238-5,5-5h32c2.762,0,5,2.238,5,5V149.125z"/>
			<path fill="none" stroke="#000000" stroke-width="2" stroke-miterlimit="10" d="M141,208.125c0,2.762-2.238,5-5,5h-32
				c-2.762,0-5-2.238-5-5v-43c0-2.762,2.238-5,5-5h32c2.762,0,5,2.238,5,5V208.125z"/>
			<path d="M70.644,70.683L67.349,90.51l-0.052,0.26h3.45l3.298-19.827l0.053-0.26H70.644z M65.673,73.718l-0.889,0.574
				l-6.697,4.188l-0.785,0.47v3.557l0.785,0.474l6.697,4.184l0.889,0.577v-3.975l-4.866-3.037l4.866-3.035V73.718z M75.718,73.718
				v3.976l4.863,3.035l-4.863,3.037v3.975l0.886-0.577l6.698-4.184l0.784-0.474v-3.557l-0.784-0.47l-6.698-4.188L75.718,73.718z"/>
			<path d="M77.91,139.809H64.785c-1.008,0-1.823,0.815-1.823,1.822v19.202c0,1.007,0.815,1.822,1.823,1.822H77.91
				c1.007,0,1.822-0.816,1.822-1.822v-19.202C79.733,140.624,78.917,139.809,77.91,139.809z M71.348,161.805
				c-0.739,0-1.337-0.599-1.337-1.337s0.598-1.338,1.337-1.338c0.737,0,1.336,0.6,1.336,1.338S72.085,161.805,71.348,161.805z
				 M78.031,155.606c0,1.007-0.817,1.823-1.823,1.823h-9.722c-1.006,0-1.823-0.816-1.823-1.823v-12.273
				c0-1.007,0.817-1.823,1.823-1.823h9.722c1.006,0,1.823,0.816,1.823,1.823L78.031,155.606L78.031,155.606z"/>
			<path d="M66.29,147.818h10.114v1.011H66.29V147.818z"/>
			<path d="M66.29,145.923h10.114v1.012H66.29V145.923z"/>
			<path d="M66.29,151.358h10.114v1.012H66.29V151.358z"/>
			<path d="M66.29,153.255h10.114v1.012H66.29V153.255z"/>
			<path d="M66.29,144.026h10.114v1.011H66.29V144.026z"/>
			<path d="M66.29,149.589h10.114v1.012H66.29V149.589z"/>
			<path d="M128.83,117.665c0-0.53-0.431-0.961-0.961-0.961l-12.724-0.009c-0.53,0-0.959,0.431-0.959,0.961v13.265
				c-0.332-0.092-0.68-0.14-1.042-0.14c-2.165,0-3.921,1.756-3.921,3.922s1.756,3.922,3.921,3.922c2.113,0,3.92-1.634,3.92-3.763
				c0.001-0.025,0.007-10.779,0.007-10.779c0.004-0.277,0.229-0.5,0.505-0.5v-0.001l7.897,0.004
				c0.266,0.016,0.476,0.233,0.476,0.502l0.002-0.005v5.957c-0.332-0.092-0.68-0.139-1.042-0.139c-2.165,0-3.922,1.755-3.922,3.922
				c0,2.165,1.756,3.922,3.922,3.922c2.113,0,3.835-1.67,3.919-3.763C128.831,133.957,128.83,117.665,128.83,117.665z"/>
		</g>
	</g>
</g>
<g id="Icons">
	<path id="YouTube__x28_alt_x29__2_" fill="#FF0000" d="M131.257,66.118c0-1.895-1.535-3.431-3.429-3.431H111.74
		c-1.894,0-3.429,1.536-3.429,3.431v9.2c0,1.895,1.535,3.432,3.429,3.432h16.087c1.894,0,3.429-1.537,3.429-3.432V66.118z
		 M117.489,74.601v-8.642l6.553,4.32L117.489,74.601z"/>
</g>
</svg>
