<?xml version="1.0" encoding="UTF-8"?>
<svg width="70px" height="73px" viewBox="0 0 70 73" version="1.1" xmlns="http://www.w3.org/2000/svg" xmlns:xlink="http://www.w3.org/1999/xlink">
    <!-- Generator: Sketch 48.1 (47250) - http://www.bohemiancoding.com/sketch -->
    <title>noun_885789_cc</title>
    <desc>Created with Sketch.</desc>
    <defs></defs>
    <g id="Page-1" stroke="none" stroke-width="1" fill="none" fill-rule="evenodd">
        <g id="noun_885789_cc" fill="#000000" fill-rule="nonzero">
            <path d="M39.899,72.172 C39.951,72.172 40.003,72.158 40.049,72.132 L56.027,62.899 C56.12,62.845 56.177,62.747 56.177,62.639 L56.177,59.22 L65.771,53.68 C65.863,53.626 65.92,53.528 65.92,53.42 L65.92,30.275 L69.825,28.023 C69.917,27.969 69.974,27.871 69.974,27.763 L69.974,27.164 C69.974,27.057 69.916,26.958 69.825,26.904 L47.088,13.771 L47.088,6.693 C47.088,6.586 47.031,6.487 46.938,6.433 L42.709,4 C42.662,3.973 42.61,3.96 42.559,3.96 C42.508,3.96 42.455,3.973 42.41,4 L39.751,5.53 C39.657,5.584 39.601,5.682 39.601,5.79 L39.601,9.457 L24.918,0.988 C24.88,0.967 24.838,0.953 24.795,0.949 L16.156,0.17 C16.147,0.169 16.138,0.169 16.129,0.169 C16.039,0.169 15.952,0.21 15.895,0.281 L7.277,10.998 L3.107,13.394 C3.014,13.447 2.957,13.546 2.957,13.654 L2.957,14.261 C2.957,14.415 3.074,14.544 3.228,14.56 L5.296,14.762 L5.296,26.906 L0.307,29.787 C0.214,29.841 0.157,29.939 0.157,30.047 L0.157,30.649 C0.157,30.733 0.192,30.814 0.255,30.871 C0.31,30.922 0.382,30.949 0.457,30.949 C0.466,30.949 0.475,30.949 0.484,30.948 L2.957,30.726 L2.957,39.017 C2.957,39.124 3.014,39.223 3.107,39.277 L23.225,50.892 L23.225,51.988 L20.678,53.457 C20.585,53.511 20.528,53.609 20.528,53.717 L20.528,54.315 C20.528,54.421 20.585,54.521 20.677,54.575 L23.225,56.054 L23.225,62.428 C23.225,62.535 23.282,62.634 23.375,62.688 L39.751,72.135 C39.796,72.158 39.848,72.172 39.899,72.172 Z M24.735,1.346 L39.798,10.034 L39.798,11.338 C39.798,11.343 39.803,11.346 39.804,11.351 C39.806,11.364 39.812,11.373 39.818,11.384 C39.825,11.396 39.83,11.405 39.841,11.414 C39.844,11.417 39.845,11.422 39.849,11.425 L44.078,13.863 C44.088,13.869 44.099,13.869 44.11,13.871 C44.113,13.872 44.115,13.876 44.118,13.876 L46.778,14.121 C46.781,14.121 46.784,14.121 46.787,14.121 C46.811,14.121 46.833,14.111 46.849,14.097 L68.769,26.759 L52.409,21.303 L16.571,0.609 L24.735,1.346 Z M42.559,4.375 L46.588,6.693 L44.129,8.112 L40.1,5.79 L42.559,4.375 Z M46.688,13.911 L44.229,13.684 L44.229,8.285 L46.688,6.867 L46.688,13.911 Z M69.576,27.706 L65.571,30.016 L52.467,37.575 L52.467,37.205 L69.576,27.34 L69.576,27.706 Z M65.521,53.362 L55.976,58.873 L55.976,56.167 L58.058,54.959 C58.062,54.956 58.062,54.951 58.066,54.947 C58.077,54.939 58.082,54.929 58.087,54.919 C58.095,54.907 58.101,54.898 58.103,54.885 C58.103,54.88 58.107,54.877 58.107,54.872 L58.107,54.27 C58.107,54.26 58.099,54.254 58.097,54.245 C58.095,54.237 58.098,54.228 58.093,54.221 C58.092,54.219 58.089,54.219 58.087,54.216 C58.086,54.214 58.087,54.21 58.085,54.208 L53.617,48.645 C53.609,48.636 53.598,48.635 53.589,48.629 C53.578,48.622 53.569,48.614 53.558,48.612 C53.544,48.609 53.533,48.613 53.52,48.616 C53.509,48.618 53.499,48.615 53.49,48.62 L39.85,56.499 C39.846,56.502 39.845,56.507 39.842,56.51 C39.836,56.514 39.83,56.516 39.826,56.521 C39.825,56.523 39.822,56.522 39.821,56.524 L36.877,60.183 L36.877,54.591 L53.774,44.831 C53.779,44.828 53.779,44.823 53.783,44.82 C53.793,44.811 53.799,44.801 53.805,44.79 C53.812,44.779 53.818,44.769 53.819,44.757 C53.82,44.752 53.824,44.749 53.824,44.744 L53.824,44.14 C53.824,44.13 53.816,44.124 53.814,44.115 C53.812,44.107 53.815,44.098 53.81,44.091 C53.809,44.089 53.806,44.088 53.804,44.086 C53.802,44.083 53.804,44.08 53.802,44.077 L52.466,42.437 L52.466,37.806 L65.521,30.277 L65.521,53.362 Z M40,71.698 L40,65.386 L55.777,56.283 L55.777,59.047 L55.777,62.581 L40,71.698 Z M22.164,19.736 L18.086,22.085 L10.822,14.405 L20.148,9.014 L22.164,19.736 Z M15.263,38.919 L22.965,43.366 L22.646,43.554 L17.346,40.493 C17.346,40.493 17.346,40.493 17.346,40.493 L15.264,39.285 L15.264,38.919 L15.263,38.919 Z M22.446,43.671 L20.777,44.634 C20.773,44.637 20.772,44.642 20.768,44.645 C20.761,44.651 20.756,44.656 20.75,44.664 C20.747,44.668 20.742,44.668 20.74,44.672 C20.74,44.673 20.74,44.674 20.74,44.675 C20.738,44.679 20.739,44.684 20.737,44.688 C20.735,44.696 20.734,44.702 20.733,44.709 C20.732,44.714 20.728,44.717 20.728,44.722 L20.728,44.874 L17.397,46.802 L17.397,40.756 L22.446,43.671 Z M22.101,46.487 L22.679,46.822 L22.101,47.154 L21.518,46.822 L22.101,46.487 Z M21.678,47.211 L22.001,47.399 L22.001,49.421 L21.678,49.233 L21.678,47.211 Z M23.423,47.693 L22.551,47.188 L22.613,47.152 L23.424,47.631 L23.424,47.693 L23.423,47.693 Z M22.202,47.399 L22.287,47.35 L22.514,47.479 L22.514,49.234 L22.202,49.42 L22.202,47.399 Z M23.573,46.79 L20.926,45.266 L20.926,44.931 L20.926,44.895 L36.677,53.993 L36.677,54.36 L23.573,46.79 Z M21.069,44.745 L36.678,39.539 L36.678,53.761 L21.069,44.745 Z M20.726,45.104 L20.726,45.323 C20.726,45.328 20.73,45.331 20.731,45.336 C20.733,45.35 20.738,45.358 20.745,45.37 C20.751,45.382 20.757,45.391 20.767,45.399 C20.771,45.402 20.771,45.407 20.776,45.41 L23.423,46.934 L23.423,47.399 L22.818,47.042 L22.926,46.985 C22.931,46.982 22.932,46.976 22.936,46.972 C22.946,46.964 22.952,46.955 22.959,46.945 C22.966,46.933 22.971,46.924 22.973,46.911 C22.974,46.905 22.979,46.902 22.979,46.896 L22.979,46.822 C22.979,46.817 22.975,46.814 22.974,46.809 C22.973,46.8 22.971,46.793 22.968,46.786 C22.967,46.781 22.969,46.776 22.967,46.772 C22.965,46.768 22.959,46.767 22.956,46.763 C22.951,46.756 22.946,46.751 22.939,46.746 C22.935,46.742 22.935,46.737 22.93,46.734 L22.152,46.283 C22.148,46.28 22.142,46.283 22.138,46.281 C22.126,46.276 22.116,46.277 22.104,46.276 C22.09,46.276 22.078,46.276 22.065,46.281 C22.061,46.283 22.056,46.281 22.052,46.283 L21.267,46.734 C21.263,46.737 21.262,46.742 21.258,46.746 C21.251,46.751 21.246,46.756 21.241,46.763 C21.238,46.767 21.232,46.767 21.23,46.772 C21.228,46.776 21.23,46.781 21.229,46.785 C21.226,46.794 21.224,46.801 21.223,46.809 C21.222,46.814 21.218,46.817 21.218,46.822 L21.218,46.896 C21.218,46.902 21.223,46.905 21.224,46.91 C21.226,46.923 21.231,46.932 21.238,46.944 C21.245,46.956 21.251,46.965 21.262,46.972 C21.266,46.976 21.266,46.981 21.271,46.984 L21.48,47.096 L21.48,49.269 L17.498,46.974 L20.726,45.104 Z M22.665,49.377 C22.669,49.374 22.669,49.369 22.673,49.366 C22.683,49.358 22.688,49.348 22.695,49.337 C22.701,49.325 22.708,49.316 22.709,49.303 C22.709,49.299 22.714,49.296 22.714,49.291 L22.714,47.595 L23.424,48.002 L23.424,50.391 L22.173,49.67 L22.665,49.377 Z M36.734,39.31 L21.734,44.313 L22.695,43.758 C22.695,43.758 22.695,43.757 22.695,43.757 L23.21,43.452 L23.211,43.452 L33.952,37.256 C33.952,37.256 33.952,37.256 33.953,37.256 L37.799,35.029 L45.303,34.36 L36.734,39.31 Z M22.774,30.854 L33.704,37.169 L23.163,43.25 L15.314,38.717 L16.534,37.192 L17.244,37.606 C17.26,37.616 17.277,37.62 17.294,37.62 C17.324,37.62 17.349,37.606 17.367,37.585 C17.368,37.584 17.37,37.585 17.372,37.583 L22.774,30.854 Z M36.877,53.992 L53.625,44.313 L53.625,44.686 L36.877,54.359 L36.877,53.992 Z M36.877,53.761 L36.877,39.458 L45.723,34.351 L52.289,42.536 L52.289,42.537 L53.572,44.112 L36.877,53.761 Z M69.434,27.189 L52.467,36.972 L52.467,21.531 L69.434,27.189 Z M52.268,37.574 L22.8,20.565 L22.376,20.322 L22.376,19.962 L52.268,37.204 L52.268,37.574 Z M18.168,22.269 L22.175,19.961 L22.175,20.323 L18.168,22.641 L18.168,22.269 Z M17.995,22.884 C17.995,22.885 17.996,22.884 17.997,22.885 C18.015,22.904 18.04,22.915 18.068,22.915 C18.085,22.915 18.102,22.911 18.118,22.902 L22.275,20.497 L22.649,20.711 L22.649,30.689 L17.394,37.236 L17.394,22.237 L17.995,22.884 Z M23.512,52.926 L36.727,60.554 C36.743,60.563 36.759,60.567 36.777,60.567 C36.806,60.567 36.832,60.553 36.85,60.532 C36.851,60.531 36.853,60.532 36.855,60.53 L39.798,56.871 L39.798,64.557 L21.068,53.741 L23.512,52.926 Z M53.516,48.837 L57.858,54.242 L40,64.556 L40,56.644 L53.516,48.837 Z M55.826,56.022 L40,65.154 L40,64.787 L57.908,54.444 L57.908,54.814 L55.826,56.022 Z M16.152,0.599 L52.268,21.45 L52.268,36.972 L22.365,19.724 L20.319,8.839 C20.318,8.832 20.312,8.83 20.309,8.824 C20.307,8.818 20.31,8.812 20.307,8.807 C20.304,8.801 20.296,8.8 20.291,8.794 C20.282,8.784 20.273,8.776 20.26,8.771 C20.248,8.766 20.238,8.764 20.225,8.763 C20.223,8.763 20.222,8.762 20.22,8.762 C20.214,8.762 20.209,8.757 20.202,8.758 L7.722,11.081 L16.152,0.599 Z M7.51,11.326 L19.665,9.062 L10.641,14.279 L3.578,13.584 L7.51,11.326 Z M3.356,13.764 L10.617,14.478 L17.969,22.25 L17.969,22.561 L17.369,21.915 C17.369,21.915 17.369,21.915 17.368,21.915 L17.367,21.913 L17.367,21.912 L10.738,14.913 C10.73,14.904 10.718,14.905 10.709,14.9 C10.698,14.893 10.689,14.882 10.675,14.881 L5.607,14.39 L3.358,14.17 L3.358,13.764 L3.356,13.764 Z M5.497,29.215 C5.497,29.216 5.496,29.217 5.496,29.219 C5.497,29.234 5.508,29.244 5.515,29.256 C5.52,29.265 5.521,29.276 5.528,29.281 C5.547,29.299 5.57,29.309 5.596,29.309 C5.599,29.309 5.602,29.309 5.605,29.309 L6.504,29.228 L6.142,29.437 L0.9,29.906 L5.496,27.252 L5.496,29.21 C5.495,29.212 5.497,29.213 5.497,29.215 Z M6.272,29.593 L6.846,29.262 L6.846,29.63 L6.272,29.963 L6.272,29.593 Z M23.423,52.744 L21.734,53.306 L23.423,52.333 L23.423,52.744 Z M20.926,53.889 L39.799,64.787 L39.799,65.154 L23.574,55.791 C23.574,55.791 23.574,55.791 23.574,55.791 L20.927,54.255 L20.927,53.889 L20.926,53.889 Z M0.556,30.138 L6.072,29.645 L6.072,30.045 L3.247,30.297 L0.556,30.538 L0.556,30.138 Z" id="Shape"></path>
        </g>
    </g>
</svg>