<?xml version="1.0" encoding="utf-8"?>
<!-- Generator: Adobe Illustrator 16.0.0, SVG Export Plug-In . SVG Version: 6.00 Build 0)  -->
<!DOCTYPE svg PUBLIC "-//W3C//DTD SVG 1.1//EN" "http://www.w3.org/Graphics/SVG/1.1/DTD/svg11.dtd">
<svg version="1.1" xmlns="http://www.w3.org/2000/svg" xmlns:xlink="http://www.w3.org/1999/xlink" x="0px" y="0px"
	 width="510.25px" height="274px" viewBox="0 0 510.25 274" enable-background="new 0 0 510.25 274" xml:space="preserve">
<g id="Layer_3" display="none">
	
		<line display="inline" fill="none" stroke="#000000" stroke-miterlimit="10" stroke-dasharray="1,10" x1="-27.75" y1="6.25" x2="1252.25" y2="6.25"/>
	
		<line display="inline" fill="none" stroke="#000000" stroke-miterlimit="10" stroke-dasharray="1,10" x1="-27.75" y1="16.25" x2="1252.25" y2="16.25"/>
	
		<line display="inline" fill="none" stroke="#000000" stroke-miterlimit="10" stroke-dasharray="1,10" x1="-27.75" y1="26.25" x2="1252.25" y2="26.25"/>
	
		<line display="inline" fill="none" stroke="#000000" stroke-miterlimit="10" stroke-dasharray="1,10" x1="-27.75" y1="36.25" x2="1252.25" y2="36.25"/>
	
		<line display="inline" fill="none" stroke="#000000" stroke-miterlimit="10" stroke-dasharray="1,10" x1="-27.75" y1="46.25" x2="1252.25" y2="46.25"/>
	
		<line display="inline" fill="none" stroke="#000000" stroke-miterlimit="10" stroke-dasharray="1,10" x1="-27.75" y1="56.25" x2="1252.25" y2="56.25"/>
	
		<line display="inline" fill="none" stroke="#000000" stroke-miterlimit="10" stroke-dasharray="1,10" x1="-27.75" y1="66.25" x2="1252.25" y2="66.25"/>
	
		<line display="inline" fill="none" stroke="#000000" stroke-miterlimit="10" stroke-dasharray="1,10" x1="-27.75" y1="76.25" x2="1252.25" y2="76.25"/>
	
		<line display="inline" fill="none" stroke="#000000" stroke-miterlimit="10" stroke-dasharray="1,10" x1="-27.75" y1="86.25" x2="1252.25" y2="86.25"/>
	
		<line display="inline" fill="none" stroke="#000000" stroke-miterlimit="10" stroke-dasharray="1,10" x1="-27.75" y1="96.25" x2="1252.25" y2="96.25"/>
	
		<line display="inline" fill="none" stroke="#000000" stroke-miterlimit="10" stroke-dasharray="1,10" x1="-27.75" y1="106.25" x2="1252.25" y2="106.25"/>
	
		<line display="inline" fill="none" stroke="#000000" stroke-miterlimit="10" stroke-dasharray="1,10" x1="-27.75" y1="116.25" x2="1252.25" y2="116.25"/>
	
		<line display="inline" fill="none" stroke="#000000" stroke-miterlimit="10" stroke-dasharray="1,10" x1="-27.75" y1="126.25" x2="1252.25" y2="126.25"/>
	
		<line display="inline" fill="none" stroke="#000000" stroke-miterlimit="10" stroke-dasharray="1,10" x1="-27.75" y1="136.25" x2="1252.25" y2="136.25"/>
	
		<line display="inline" fill="none" stroke="#000000" stroke-miterlimit="10" stroke-dasharray="1,10" x1="-27.75" y1="146.25" x2="1252.25" y2="146.25"/>
	
		<line display="inline" fill="none" stroke="#000000" stroke-miterlimit="10" stroke-dasharray="1,10" x1="-27.75" y1="156.25" x2="1252.25" y2="156.25"/>
	
		<line display="inline" fill="none" stroke="#000000" stroke-miterlimit="10" stroke-dasharray="1,10" x1="-27.75" y1="166.25" x2="1252.25" y2="166.25"/>
	
		<line display="inline" fill="none" stroke="#000000" stroke-miterlimit="10" stroke-dasharray="1,10" x1="-27.75" y1="176.25" x2="1252.25" y2="176.25"/>
	
		<line display="inline" fill="none" stroke="#000000" stroke-miterlimit="10" stroke-dasharray="1,10" x1="-27.75" y1="186.25" x2="1252.25" y2="186.25"/>
	
		<line display="inline" fill="none" stroke="#000000" stroke-miterlimit="10" stroke-dasharray="1,10" x1="-27.75" y1="196.25" x2="1252.25" y2="196.25"/>
	
		<line display="inline" fill="none" stroke="#000000" stroke-miterlimit="10" stroke-dasharray="1,10" x1="-27.75" y1="206.25" x2="1252.25" y2="206.25"/>
	
		<line display="inline" fill="none" stroke="#000000" stroke-miterlimit="10" stroke-dasharray="1,10" x1="-27.75" y1="216.25" x2="1252.25" y2="216.25"/>
	
		<line display="inline" fill="none" stroke="#000000" stroke-miterlimit="10" stroke-dasharray="1,10" x1="-27.75" y1="226.25" x2="1252.25" y2="226.25"/>
	
		<line display="inline" fill="none" stroke="#000000" stroke-miterlimit="10" stroke-dasharray="1,10" x1="-27.75" y1="236.25" x2="1252.25" y2="236.25"/>
	
		<line display="inline" fill="none" stroke="#000000" stroke-miterlimit="10" stroke-dasharray="1,10" x1="-27.75" y1="246.25" x2="1252.25" y2="246.25"/>
	
		<line display="inline" fill="none" stroke="#000000" stroke-miterlimit="10" stroke-dasharray="1,10" x1="-27.75" y1="256.25" x2="1252.25" y2="256.25"/>
	
		<line display="inline" fill="none" stroke="#000000" stroke-miterlimit="10" stroke-dasharray="1,10" x1="-27.75" y1="266.25" x2="1252.25" y2="266.25"/>
</g>
<g id="Layer_8">
</g>
<g id="Capa_1">
</g>
<g id="Layer_1">
	<g>
		<path fill="#FFFFFF" stroke="#000000" stroke-width="2.3278" stroke-miterlimit="10" d="M275.438,170.514
			c18.194,0,32.943-14.749,32.943-32.945c0-18.193-14.749-32.943-32.943-32.943c-18.197,0-32.946,14.75-32.946,32.943
			C242.491,155.765,257.24,170.514,275.438,170.514"/>
		<path fill="#FFFFFF" stroke="#000000" stroke-width="2.3278" stroke-miterlimit="10" d="M275.436,80.676
			c18.194,0,32.945-14.748,32.945-32.944c0-18.193-14.75-32.944-32.945-32.944c-18.194,0-32.945,14.751-32.945,32.944
			C242.491,65.928,257.242,80.676,275.436,80.676"/>
		<path fill="#FFFFFF" stroke="#000000" stroke-width="2.3278" stroke-miterlimit="10" d="M275.34,260.351
			c18.196,0,32.945-14.751,32.945-32.945s-14.749-32.943-32.945-32.943c-18.198,0-32.945,14.749-32.945,32.943
			S257.143,260.351,275.34,260.351"/>
		<path d="M292.944,128.62c-1.263,0.562-2.622,0.939-4.045,1.108c1.456-0.871,2.572-2.25,3.097-3.895
			c-1.362,0.806-2.868,1.393-4.476,1.707c-1.281-1.37-3.113-2.224-5.142-2.224c-3.888,0-7.042,3.154-7.042,7.044
			c0,0.553,0.06,1.088,0.181,1.603c-5.855-0.292-11.043-3.095-14.52-7.36c-0.606,1.045-0.953,2.254-0.953,3.545
			c0,2.441,1.244,4.6,3.134,5.863c-1.155-0.035-2.242-0.355-3.192-0.881v0.088c0,3.413,2.428,6.262,5.651,6.908
			c-0.59,0.164-1.213,0.246-1.856,0.246c-0.456,0-0.897-0.041-1.325-0.124c0.896,2.798,3.495,4.837,6.58,4.891
			c-2.411,1.889-5.45,3.015-8.75,3.015c-0.568,0-1.131-0.031-1.68-0.096c3.116,1.996,6.82,3.163,10.798,3.163
			c12.96,0,20.043-10.731,20.043-20.042c0-0.307-0.006-0.611-0.019-0.912C290.807,131.273,292.004,130.033,292.944,128.62"/>
		<path d="M267.071,221.751h3.542v-3.444c0-1.519,0.039-3.86,1.142-5.311c1.163-1.536,2.758-2.58,5.5-2.58
			c4.472,0,6.354,0.637,6.354,0.637l-0.885,5.251c0,0-1.478-0.429-2.855-0.429c-1.378,0-2.613,0.495-2.613,1.873v4.003h5.652
			l-0.396,5.128h-5.257v17.816h-6.642v-17.816h-3.542V221.751z"/>
		<path d="M285.853,30.742h-21.028c-3.653,0-6.624,2.97-6.624,6.623v6.998v14.032c0,3.653,2.971,6.624,6.624,6.624h21.028
			c3.652,0,6.626-2.971,6.626-6.624V44.363v-6.998C292.479,33.712,289.505,30.742,285.853,30.742z M287.754,34.691l0.757-0.002
			v0.756v5.054l-5.791,0.019l-0.021-5.81L287.754,34.691z M270.448,44.363c1.097-1.521,2.878-2.518,4.891-2.518
			c2.014,0,3.796,0.996,4.892,2.518c0.717,0.991,1.142,2.203,1.142,3.517c0,3.327-2.707,6.032-6.034,6.032
			c-3.324,0-6.031-2.705-6.031-6.032C269.308,46.566,269.734,45.354,270.448,44.363z M289.138,58.396
			c0,1.811-1.472,3.284-3.285,3.284h-21.028c-1.813,0-3.285-1.474-3.285-3.284V44.363h5.119c-0.442,1.087-0.692,2.272-0.692,3.517
			c0,5.167,4.205,9.374,9.372,9.374c5.169,0,9.374-4.207,9.374-9.374c0-1.244-0.25-2.43-0.691-3.517h5.117V58.396z"/>
	</g>
	<g>
		<g>
			<line fill="none" stroke="#000000" stroke-width="2" stroke-miterlimit="10" x1="192.25" y1="134.75" x2="176.25" y2="134.75"/>
			<g>
				<polygon points="189.25,126.937 203.355,135.081 189.25,143.226 				"/>
			</g>
		</g>
	</g>
	<g>
		<g>
			<line fill="none" stroke="#000000" stroke-width="2" stroke-miterlimit="10" x1="387.25" y1="134.75" x2="372.25" y2="134.75"/>
			<g>
				<polygon points="384.25,126.937 398.355,135.081 384.25,143.226 				"/>
			</g>
		</g>
	</g>
</g>
<g id="Your_Icon">
	<path fill="#FFFFFF" stroke="#000000" stroke-width="2.3278" stroke-miterlimit="10" d="M481.554,54.189
		c14.167,0,25.651-11.484,25.651-25.651s-11.484-25.65-25.651-25.65c-14.169,0-25.652,11.483-25.652,25.65
		S467.385,54.189,481.554,54.189"/>
	<ellipse cx="481.549" cy="45.854" rx="14.499" ry="7.52"/>
	<path fill="#FFFFFF" stroke="#000000" stroke-width="2.3278" stroke-miterlimit="10" d="M481.554,127.693
		c14.167,0,25.651-11.486,25.651-25.652s-11.484-25.65-25.651-25.65c-14.169,0-25.652,11.484-25.652,25.65
		S467.385,127.693,481.554,127.693"/>
	<ellipse cx="481.549" cy="119.357" rx="14.499" ry="7.52"/>
	<path fill="#FFFFFF" stroke="#000000" stroke-width="2.3278" stroke-miterlimit="10" d="M481.554,201.197
		c14.167,0,25.651-11.486,25.651-25.652s-11.484-25.65-25.651-25.65c-14.169,0-25.652,11.484-25.652,25.65
		S467.385,201.197,481.554,201.197"/>
	<ellipse cx="481.549" cy="192.861" rx="14.499" ry="7.519"/>
	<circle cx="481.554" cy="23.982" r="8.152"/>
	<path d="M496.047,50.209V43.91c0-4.982-4.077-9.059-9.059-9.059h-10.87c-4.981,0-9.059,4.076-9.059,9.059v4.92l6.001,3.92
		l8.2,1.438L496.047,50.209z"/>
	<circle cx="481.554" cy="97.485" r="8.152"/>
	<path d="M496.047,123.712v-6.299c0-4.981-4.077-9.058-9.059-9.058h-10.87c-4.981,0-9.059,4.076-9.059,9.058v4.921l6.001,3.919
		l8.2,1.438L496.047,123.712z"/>
	<circle cx="481.554" cy="170.988" r="8.152"/>
	<path d="M496.047,197.215v-6.299c0-4.981-4.077-9.058-9.059-9.058h-10.87c-4.981,0-9.059,4.076-9.059,9.058v4.921l6.001,3.919
		l8.2,1.438L496.047,197.215z"/>
	<g>
		<path fill="#FFFFFF" stroke="#000000" stroke-width="2.3278" stroke-miterlimit="10" d="M481.554,272.25
			c14.167,0,25.651-11.486,25.651-25.652s-11.484-25.65-25.651-25.65c-14.169,0-25.652,11.484-25.652,25.65
			S467.385,272.25,481.554,272.25"/>
		<ellipse cx="481.549" cy="263.914" rx="14.499" ry="7.52"/>
		<circle cx="481.554" cy="242.042" r="8.152"/>
		<path d="M496.047,268.269v-6.3c0-4.98-4.077-9.057-9.059-9.057h-10.87c-4.981,0-9.059,4.076-9.059,9.057v4.922l6.001,3.919
			l8.2,1.438L496.047,268.269z"/>
	</g>
	<path fill="#FFFFFF" stroke="#000000" stroke-width="3" stroke-miterlimit="10" d="M69.222,204.202
		c36.8,0,66.634-29.831,66.634-66.634c0-36.796-29.834-66.633-66.634-66.633c-36.798,0-66.634,29.837-66.634,66.633
		C2.588,174.371,32.424,204.202,69.222,204.202"/>
	<g>
		<path d="M94.965,113.221H84.836v-1.428c0-8.657-7.048-15.705-15.705-15.705c-8.667,0-15.714,7.048-15.714,15.705v1.428h-9.936
			c-1.444,0-2.626,1.172-2.626,2.626v30.98v24.695c0,1.453,1.182,2.626,2.626,2.626h51.482c1.445,0,2.627-1.173,2.627-2.626v-55.676
			C97.59,114.393,96.408,113.221,94.965,113.221z M56.918,111.793c0-6.732,5.48-12.203,12.212-12.203
			c6.731,0,12.204,5.471,12.204,12.203v1.428H70.066H56.918V111.793z M92.337,168.896H46.106v-50.423h7.311v5.487
			c0,0.971,0.787,1.752,1.751,1.752c0.972,0,1.751-0.779,1.751-1.752v-5.487h24.416v5.487c0,0.971,0.788,1.752,1.752,1.752
			c0.962,0,1.75-0.779,1.75-1.752v-5.487h7.502v50.423H92.337z"/>
	</g>
</g>
<g id="Слой_1">
	<text transform="matrix(1 0 0 1 377.3857 125.3174)" fill="#FC1D06" font-family="'Avenir-Medium'" font-size="30.218">*</text>
</g>
<g id="Calque_1">
</g>
<g id="Icons">
</g>
</svg>
