<?xml version="1.0" encoding="utf-8"?>
<!-- Generator: Adobe Illustrator 16.0.0, SVG Export Plug-In . SVG Version: 6.00 Build 0)  -->
<!DOCTYPE svg PUBLIC "-//W3C//DTD SVG 1.1//EN" "http://www.w3.org/Graphics/SVG/1.1/DTD/svg11.dtd">
<svg version="1.1" xmlns="http://www.w3.org/2000/svg" xmlns:xlink="http://www.w3.org/1999/xlink" x="0px" y="0px"
	 width="516.167px" height="343.791px" viewBox="0 0 516.167 343.791" enable-background="new 0 0 516.167 343.791"
	 xml:space="preserve">
<g id="Layer_3">
</g>
<g id="Layer_8">
</g>
<g id="Capa_1">
</g>
<g id="Layer_1">
	<circle fill="#FFFFFF" stroke="#000000" stroke-width="2.8787" stroke-miterlimit="10" cx="284.161" cy="233.171" r="21.878"/>
	<circle fill="#FFFFFF" stroke="#000000" stroke-width="2.8787" stroke-miterlimit="10" cx="23.376" cy="128.857" r="21.878"/>
	<path fill="#FFFFFF" stroke="#000000" stroke-width="2.8787" stroke-miterlimit="10" d="M166.954,229.693
		c0,12.083-9.795,21.879-21.878,21.879c-12.083,0-21.878-9.796-21.878-21.879c0-12.08,9.795-21.877,21.878-21.877
		C157.159,207.816,166.954,217.613,166.954,229.693z"/>
	<circle fill="#FFFFFF" stroke="#000000" stroke-width="2.8787" stroke-miterlimit="10" cx="405.86" cy="128.857" r="21.878"/>
	<circle fill="#FFFFFF" stroke="#000000" stroke-width="2.8787" stroke-miterlimit="10" cx="492.789" cy="215.785" r="21.878"/>
	<circle fill="#FFFFFF" stroke="#000000" stroke-width="2.8787" stroke-miterlimit="10" cx="405.86" cy="320.1" r="21.878"/>
	<circle fill="#FFFFFF" stroke="#000000" stroke-width="2.8787" stroke-miterlimit="10" cx="284.161" cy="320.1" r="21.878"/>
	<path d="M405.811,310.057l-3.295,19.827l-0.052,0.26h3.45l3.298-19.827l0.053-0.26H405.811z M400.84,313.092l-0.889,0.574
		l-6.697,4.188l-0.785,0.47v3.557l0.785,0.474l6.697,4.184l0.889,0.577v-3.975l-4.866-3.037l4.866-3.035V313.092z M410.885,313.092
		v3.976l4.863,3.035l-4.863,3.037v3.975l0.886-0.577l6.698-4.184l0.784-0.474v-3.557l-0.784-0.47l-6.698-4.188L410.885,313.092z"/>
	<line fill="none" stroke="#000000" stroke-width="3" stroke-miterlimit="10" x1="44.014" y1="121.594" x2="264.103" y2="33.281"/>
	<line fill="none" stroke="#000000" stroke-width="3" stroke-miterlimit="10" x1="301.891" y1="37.354" x2="389.785" y2="113.889"/>
	<line fill="none" stroke="#000000" stroke-width="3" stroke-miterlimit="10" x1="269.192" y1="40.492" x2="154.059" y2="209.747"/>
	
		<line fill="none" stroke="#000000" stroke-width="3" stroke-miterlimit="10" x1="388.303" y1="142.826" x2="301.086" y2="217.179"/>
	<line fill="none" stroke="#000000" stroke-width="3" stroke-miterlimit="10" x1="474.976" y1="203.092" x2="165.134" y2="33.281"/>
	
		<line fill="none" stroke="#000000" stroke-width="3" stroke-miterlimit="10" x1="262.283" y1="233.171" x2="166.954" y2="229.693"/>
	<line fill="none" stroke="#000000" stroke-width="3" stroke-miterlimit="10" x1="265.604" y1="221.587" x2="44.014" y2="136.122"/>
	
		<line fill="none" stroke="#000000" stroke-width="3" stroke-miterlimit="10" x1="306.039" y1="233.171" x2="470.911" y2="215.785"/>
	<line fill="none" stroke="#000000" stroke-width="3" stroke-miterlimit="10" x1="283.167" y1="211.666" x2="283.167" y2="45.666"/>
	
		<line fill="none" stroke="#000000" stroke-width="3" stroke-miterlimit="10" x1="283.167" y1="254.666" x2="283.167" y2="298.666"/>
	<line fill="none" stroke="#000000" stroke-width="3" stroke-miterlimit="10" x1="144.167" y1="207.666" x2="144.167" y2="45.666"/>
	<line fill="none" stroke="#000000" stroke-width="3" stroke-miterlimit="10" x1="127.367" y1="37.354" x2="39.302" y2="113.889"/>
	
		<line fill="none" stroke="#000000" stroke-width="2.8787" stroke-miterlimit="10" x1="40.618" y1="142.293" x2="127.367" y2="216.884"/>
	
		<line fill="none" stroke="#000000" stroke-width="3" stroke-miterlimit="10" x1="161.002" y1="244.662" x2="265.604" y2="308.551"/>
	
		<line fill="none" stroke="#000000" stroke-width="3" stroke-miterlimit="10" x1="474.976" y1="228.458" x2="304.593" y2="312.277"/>
	
		<line fill="none" stroke="#000000" stroke-width="3" stroke-miterlimit="10" x1="387.303" y1="308.551" x2="300.086" y2="248.141"/>
	<line fill="none" stroke="#000000" stroke-width="3" stroke-miterlimit="10" x1="392.469" y1="303.096" x2="160.045" y2="40.469"/>
	<line fill="none" stroke="#000000" stroke-width="3" stroke-miterlimit="10" x1="399.795" y1="299.081" x2="288.092" y2="46.065"/>
	<line fill="none" stroke="#000000" stroke-width="3" stroke-miterlimit="10" x1="45.667" y1="129.166" x2="384.667" y2="129.166"/>
	<circle fill="#FFFFFF" stroke="#000000" stroke-width="2.8787" stroke-miterlimit="10" cx="284.161" cy="24.1" r="21.878"/>
	<path fill="#FFFFFF" stroke="#000000" stroke-width="2.8787" stroke-miterlimit="10" d="M166.954,24.543
		c0,12.082-9.795,21.879-21.878,21.879c-12.083,0-21.878-9.797-21.878-21.879c0-12.08,9.795-21.877,21.878-21.877
		C157.159,2.666,166.954,12.463,166.954,24.543z"/>
	<circle fill="#FF0000" cx="284.588" cy="228.54" r="7.241"/>
	<path fill="#FF0000" d="M297.461,251.834v-5.595c0-4.425-3.622-8.046-8.046-8.046h-9.654c-4.424,0-8.046,3.621-8.046,8.046v4.37
		l5.33,3.481l7.283,1.277L297.461,251.834z"/>
	<circle fill="none" stroke="#000000" stroke-width="2.8787" stroke-miterlimit="10" cx="284.161" cy="233.171" r="21.878"/>
</g>
<g id="Your_Icon">
	<ellipse cx="284.584" cy="334.966" rx="12.878" ry="6.679"/>
	<circle cx="284.588" cy="315.54" r="7.241"/>
	<path d="M297.461,338.834v-5.595c0-4.425-3.622-8.046-8.046-8.046h-9.654c-4.424,0-8.046,3.621-8.046,8.046v4.37l5.33,3.481
		l7.283,1.277L297.461,338.834z"/>
	<circle cx="492.588" cy="210.54" r="7.241"/>
	<path d="M505.461,233.834v-5.595c0-4.425-3.622-8.046-8.046-8.046h-9.654c-4.424,0-8.046,3.621-8.046,8.046v4.37l5.33,3.481
		l7.283,1.277L505.461,233.834z"/>
	<ellipse cx="284.584" cy="38.966" rx="12.878" ry="6.679"/>
	<circle cx="284.588" cy="19.54" r="7.241"/>
	<path d="M297.461,42.834v-5.595c0-4.425-3.622-8.046-8.046-8.046h-9.654c-4.424,0-8.046,3.621-8.046,8.046v4.37l5.33,3.481
		l7.283,1.277L297.461,42.834z"/>
	<ellipse cx="23.584" cy="143.966" rx="12.878" ry="6.679"/>
	<circle cx="23.588" cy="124.54" r="7.241"/>
	<path d="M36.461,147.834v-5.595c0-4.425-3.622-8.046-8.046-8.046h-9.654c-4.424,0-8.046,3.621-8.046,8.046v4.37l5.33,3.481
		l7.283,1.277L36.461,147.834z"/>
</g>
<g id="Слой_1">
	<path fill="#FF0000" d="M151.639,13.12h-13.125c-1.008,0-1.823,0.815-1.823,1.822v19.202c0,1.007,0.815,1.822,1.823,1.822h13.125
		c1.007,0,1.822-0.816,1.822-1.822V14.942C153.462,13.936,152.646,13.12,151.639,13.12z M145.077,35.116
		c-0.739,0-1.337-0.599-1.337-1.337s0.598-1.338,1.337-1.338c0.737,0,1.336,0.6,1.336,1.338S145.814,35.116,145.077,35.116z
		 M151.76,28.918c0,1.007-0.817,1.823-1.823,1.823h-9.722c-1.006,0-1.823-0.816-1.823-1.823V16.645c0-1.007,0.817-1.823,1.823-1.823
		h9.722c1.006,0,1.823,0.816,1.823,1.823L151.76,28.918L151.76,28.918z"/>
	<path fill="#FF0000" d="M140.019,21.13h10.114v1.011h-10.114V21.13z"/>
	<path fill="#FF0000" d="M140.019,19.234h10.114v1.012h-10.114V19.234z"/>
	<path fill="#FF0000" d="M140.019,24.67h10.114v1.012h-10.114V24.67z"/>
	<path fill="#FF0000" d="M140.019,26.566h10.114v1.012h-10.114V26.566z"/>
	<path fill="#FF0000" d="M140.019,17.338h10.114v1.011h-10.114V17.338z"/>
	<path fill="#FF0000" d="M140.019,22.9h10.114v1.012h-10.114V22.9z"/>
</g>
<g id="Calque_1">
	<path d="M415.664,119.171c0-0.53-0.431-0.961-0.961-0.961l-12.724-0.009c-0.53,0-0.959,0.431-0.959,0.961v13.265
		c-0.332-0.092-0.68-0.14-1.042-0.14c-2.165,0-3.921,1.756-3.921,3.922s1.756,3.922,3.921,3.922c2.113,0,3.92-1.634,3.92-3.763
		c0.001-0.025,0.007-10.779,0.007-10.779c0.004-0.277,0.229-0.5,0.505-0.5v-0.001l7.897,0.004c0.266,0.016,0.476,0.233,0.476,0.502
		l0.002-0.005v5.957c-0.332-0.092-0.68-0.139-1.042-0.139c-2.165,0-3.922,1.755-3.922,3.922c0,2.165,1.756,3.922,3.922,3.922
		c2.113,0,3.835-1.67,3.919-3.763C415.665,135.463,415.664,119.171,415.664,119.171z"/>
</g>
<g id="Icons">
	<path id="YouTube__x28_alt_x29__7_" d="M156.548,225.597c0-1.895-1.535-3.431-3.429-3.431h-16.087
		c-1.894,0-3.429,1.536-3.429,3.431v9.2c0,1.895,1.535,3.432,3.429,3.432h16.087c1.894,0,3.429-1.537,3.429-3.432V225.597z
		 M142.781,234.079v-8.642l6.553,4.32L142.781,234.079z"/>
</g>
</svg>
