<?xml version="1.0" encoding="utf-8"?>
<!-- Generator: Adobe Illustrator 16.0.0, SVG Export Plug-In . SVG Version: 6.00 Build 0)  -->
<!DOCTYPE svg PUBLIC "-//W3C//DTD SVG 1.1//EN" "http://www.w3.org/Graphics/SVG/1.1/DTD/svg11.dtd">
<svg version="1.1" xmlns="http://www.w3.org/2000/svg" xmlns:xlink="http://www.w3.org/1999/xlink" x="0px" y="0px" width="1280px"
	 height="1074px" viewBox="0 0 1280 1074" enable-background="new 0 0 1280 1074" xml:space="preserve">
<g id="Layer_3">
	<line fill="none" stroke="#000000" stroke-miterlimit="10" stroke-dasharray="1,5" x1="0" y1="0" x2="1280" y2="0"/>
	<line fill="none" stroke="#000000" stroke-miterlimit="10" stroke-dasharray="1,5" x1="0" y1="6" x2="1280" y2="6"/>
	<line fill="none" stroke="#000000" stroke-miterlimit="10" stroke-dasharray="1,5" x1="0" y1="12" x2="1280" y2="12"/>
	<line fill="none" stroke="#000000" stroke-miterlimit="10" stroke-dasharray="1,5" x1="0" y1="18" x2="1280" y2="18"/>
	<line fill="none" stroke="#000000" stroke-miterlimit="10" stroke-dasharray="1,5" x1="0" y1="24" x2="1280" y2="24"/>
	<line fill="none" stroke="#000000" stroke-miterlimit="10" stroke-dasharray="1,5" x1="0" y1="30" x2="1280" y2="30"/>
	<line fill="none" stroke="#000000" stroke-miterlimit="10" stroke-dasharray="1,5" x1="0" y1="36" x2="1280" y2="36"/>
	<line fill="none" stroke="#000000" stroke-miterlimit="10" stroke-dasharray="1,5" x1="0" y1="42" x2="1280" y2="42"/>
	<line fill="none" stroke="#000000" stroke-miterlimit="10" stroke-dasharray="1,5" x1="0" y1="48" x2="1280" y2="48"/>
	<line fill="none" stroke="#000000" stroke-miterlimit="10" stroke-dasharray="1,5" x1="0" y1="54" x2="1280" y2="54"/>
	<line fill="none" stroke="#000000" stroke-miterlimit="10" stroke-dasharray="1,5" x1="0" y1="60" x2="1280" y2="60"/>
	<line fill="none" stroke="#000000" stroke-miterlimit="10" stroke-dasharray="1,5" x1="0" y1="66" x2="1280" y2="66"/>
	<line fill="none" stroke="#000000" stroke-miterlimit="10" stroke-dasharray="1,5" x1="0" y1="72" x2="1280" y2="72"/>
	<line fill="none" stroke="#000000" stroke-miterlimit="10" stroke-dasharray="1,5" x1="0" y1="78" x2="1280" y2="78"/>
	<line fill="none" stroke="#000000" stroke-miterlimit="10" stroke-dasharray="1,5" x1="0" y1="84" x2="1280" y2="84"/>
	<line fill="none" stroke="#000000" stroke-miterlimit="10" stroke-dasharray="1,5" x1="0" y1="90" x2="1280" y2="90"/>
	<line fill="none" stroke="#000000" stroke-miterlimit="10" stroke-dasharray="1,5" x1="0" y1="96" x2="1280" y2="96"/>
	<line fill="none" stroke="#000000" stroke-miterlimit="10" stroke-dasharray="1,5" x1="0" y1="102" x2="1280" y2="102"/>
	<line fill="none" stroke="#000000" stroke-miterlimit="10" stroke-dasharray="1,5" x1="0" y1="108" x2="1280" y2="108"/>
	<line fill="none" stroke="#000000" stroke-miterlimit="10" stroke-dasharray="1,5" x1="0" y1="114" x2="1280" y2="114"/>
	<line fill="none" stroke="#000000" stroke-miterlimit="10" stroke-dasharray="1,5" x1="0" y1="120" x2="1280" y2="120"/>
	<line fill="none" stroke="#000000" stroke-miterlimit="10" stroke-dasharray="1,5" x1="0" y1="126" x2="1280" y2="126"/>
	<line fill="none" stroke="#000000" stroke-miterlimit="10" stroke-dasharray="1,5" x1="0" y1="132" x2="1280" y2="132"/>
	<line fill="none" stroke="#000000" stroke-miterlimit="10" stroke-dasharray="1,5" x1="0" y1="138" x2="1280" y2="138"/>
	<line fill="none" stroke="#000000" stroke-miterlimit="10" stroke-dasharray="1,5" x1="0" y1="144" x2="1280" y2="144"/>
	<line fill="none" stroke="#000000" stroke-miterlimit="10" stroke-dasharray="1,5" x1="0" y1="150" x2="1280" y2="150"/>
	<line fill="none" stroke="#000000" stroke-miterlimit="10" stroke-dasharray="1,5" x1="0" y1="156" x2="1280" y2="156"/>
	<line fill="none" stroke="#000000" stroke-miterlimit="10" stroke-dasharray="1,5" x1="0" y1="162" x2="1280" y2="162"/>
	<line fill="none" stroke="#000000" stroke-miterlimit="10" stroke-dasharray="1,5" x1="0" y1="168" x2="1280" y2="168"/>
	<line fill="none" stroke="#000000" stroke-miterlimit="10" stroke-dasharray="1,5" x1="0" y1="174" x2="1280" y2="174"/>
	<line fill="none" stroke="#000000" stroke-miterlimit="10" stroke-dasharray="1,5" x1="0" y1="180" x2="1280" y2="180"/>
	<line fill="none" stroke="#000000" stroke-miterlimit="10" stroke-dasharray="1,5" x1="0" y1="186" x2="1280" y2="186"/>
	<line fill="none" stroke="#000000" stroke-miterlimit="10" stroke-dasharray="1,5" x1="0" y1="192" x2="1280" y2="192"/>
	<line fill="none" stroke="#000000" stroke-miterlimit="10" stroke-dasharray="1,5" x1="0" y1="198" x2="1280" y2="198"/>
	<line fill="none" stroke="#000000" stroke-miterlimit="10" stroke-dasharray="1,5" x1="0" y1="204" x2="1280" y2="204"/>
	<line fill="none" stroke="#000000" stroke-miterlimit="10" stroke-dasharray="1,5" x1="0" y1="210" x2="1280" y2="210"/>
	<line fill="none" stroke="#000000" stroke-miterlimit="10" stroke-dasharray="1,5" x1="0" y1="216" x2="1280" y2="216"/>
	<line fill="none" stroke="#000000" stroke-miterlimit="10" stroke-dasharray="1,5" x1="0" y1="222" x2="1280" y2="222"/>
	<line fill="none" stroke="#000000" stroke-miterlimit="10" stroke-dasharray="1,5" x1="0" y1="228" x2="1280" y2="228"/>
	<line fill="none" stroke="#000000" stroke-miterlimit="10" stroke-dasharray="1,5" x1="0" y1="234" x2="1280" y2="234"/>
	<line fill="none" stroke="#000000" stroke-miterlimit="10" stroke-dasharray="1,5" x1="0" y1="240" x2="1280" y2="240"/>
	<line fill="none" stroke="#000000" stroke-miterlimit="10" stroke-dasharray="1,5" x1="0" y1="246" x2="1280" y2="246"/>
	<line fill="none" stroke="#000000" stroke-miterlimit="10" stroke-dasharray="1,5" x1="0" y1="252" x2="1280" y2="252"/>
	<line fill="none" stroke="#000000" stroke-miterlimit="10" stroke-dasharray="1,5" x1="0" y1="258" x2="1280" y2="258"/>
	<line fill="none" stroke="#000000" stroke-miterlimit="10" stroke-dasharray="1,5" x1="0" y1="264" x2="1280" y2="264"/>
	<line fill="none" stroke="#000000" stroke-miterlimit="10" stroke-dasharray="1,5" x1="0" y1="270" x2="1280" y2="270"/>
	<line fill="none" stroke="#000000" stroke-miterlimit="10" stroke-dasharray="1,5" x1="0" y1="276" x2="1280" y2="276"/>
	<line fill="none" stroke="#000000" stroke-miterlimit="10" stroke-dasharray="1,5" x1="0" y1="282" x2="1280" y2="282"/>
	<line fill="none" stroke="#000000" stroke-miterlimit="10" stroke-dasharray="1,5" x1="0" y1="288" x2="1280" y2="288"/>
	<line fill="none" stroke="#000000" stroke-miterlimit="10" stroke-dasharray="1,5" x1="0" y1="294" x2="1280" y2="294"/>
	<line fill="none" stroke="#000000" stroke-miterlimit="10" stroke-dasharray="1,5" x1="0" y1="300" x2="1280" y2="300"/>
	<line fill="none" stroke="#000000" stroke-miterlimit="10" stroke-dasharray="1,5" x1="0" y1="306" x2="1280" y2="306"/>
	<line fill="none" stroke="#000000" stroke-miterlimit="10" stroke-dasharray="1,5" x1="0" y1="312" x2="1280" y2="312"/>
	<line fill="none" stroke="#000000" stroke-miterlimit="10" stroke-dasharray="1,5" x1="0" y1="318" x2="1280" y2="318"/>
	<line fill="none" stroke="#000000" stroke-miterlimit="10" stroke-dasharray="1,5" x1="0" y1="324" x2="1280" y2="324"/>
	<line fill="none" stroke="#000000" stroke-miterlimit="10" stroke-dasharray="1,5" x1="0" y1="330" x2="1280" y2="330"/>
	<line fill="none" stroke="#000000" stroke-miterlimit="10" stroke-dasharray="1,5" x1="0" y1="336" x2="1280" y2="336"/>
	<line fill="none" stroke="#000000" stroke-miterlimit="10" stroke-dasharray="1,5" x1="0" y1="342" x2="1280" y2="342"/>
	<line fill="none" stroke="#000000" stroke-miterlimit="10" stroke-dasharray="1,5" x1="0" y1="348" x2="1280" y2="348"/>
	<line fill="none" stroke="#000000" stroke-miterlimit="10" stroke-dasharray="1,5" x1="0" y1="354" x2="1280" y2="354"/>
	<line fill="none" stroke="#000000" stroke-miterlimit="10" stroke-dasharray="1,5" x1="0" y1="360" x2="1280" y2="360"/>
	<line fill="none" stroke="#000000" stroke-miterlimit="10" stroke-dasharray="1,5" x1="0" y1="366" x2="1280" y2="366"/>
	<line fill="none" stroke="#000000" stroke-miterlimit="10" stroke-dasharray="1,5" x1="0" y1="372" x2="1280" y2="372"/>
	<line fill="none" stroke="#000000" stroke-miterlimit="10" stroke-dasharray="1,5" x1="0" y1="378" x2="1280" y2="378"/>
	<line fill="none" stroke="#000000" stroke-miterlimit="10" stroke-dasharray="1,5" x1="0" y1="384" x2="1280" y2="384"/>
	<line fill="none" stroke="#000000" stroke-miterlimit="10" stroke-dasharray="1,5" x1="0" y1="390" x2="1280" y2="390"/>
	<line fill="none" stroke="#000000" stroke-miterlimit="10" stroke-dasharray="1,5" x1="0" y1="396" x2="1280" y2="396"/>
	<line fill="none" stroke="#000000" stroke-miterlimit="10" stroke-dasharray="1,5" x1="0" y1="402" x2="1280" y2="402"/>
	<line fill="none" stroke="#000000" stroke-miterlimit="10" stroke-dasharray="1,5" x1="0" y1="408" x2="1280" y2="408"/>
	<line fill="none" stroke="#000000" stroke-miterlimit="10" stroke-dasharray="1,5" x1="0" y1="414" x2="1280" y2="414"/>
	<line fill="none" stroke="#000000" stroke-miterlimit="10" stroke-dasharray="1,5" x1="0" y1="420" x2="1280" y2="420"/>
	<line fill="none" stroke="#000000" stroke-miterlimit="10" stroke-dasharray="1,5" x1="0" y1="426" x2="1280" y2="426"/>
	<line fill="none" stroke="#000000" stroke-miterlimit="10" stroke-dasharray="1,5" x1="0" y1="432" x2="1280" y2="432"/>
	<line fill="none" stroke="#000000" stroke-miterlimit="10" stroke-dasharray="1,5" x1="0" y1="438" x2="1280" y2="438"/>
	<line fill="none" stroke="#000000" stroke-miterlimit="10" stroke-dasharray="1,5" x1="0" y1="444" x2="1280" y2="444"/>
	<line fill="none" stroke="#000000" stroke-miterlimit="10" stroke-dasharray="1,5" x1="0" y1="450" x2="1280" y2="450"/>
	<line fill="none" stroke="#000000" stroke-miterlimit="10" stroke-dasharray="1,5" x1="0" y1="456" x2="1280" y2="456"/>
	<line fill="none" stroke="#000000" stroke-miterlimit="10" stroke-dasharray="1,5" x1="0" y1="462" x2="1280" y2="462"/>
	<line fill="none" stroke="#000000" stroke-miterlimit="10" stroke-dasharray="1,5" x1="0" y1="468" x2="1280" y2="468"/>
	<line fill="none" stroke="#000000" stroke-miterlimit="10" stroke-dasharray="1,5" x1="0" y1="474" x2="1280" y2="474"/>
	<line fill="none" stroke="#000000" stroke-miterlimit="10" stroke-dasharray="1,5" x1="0" y1="480" x2="1280" y2="480"/>
	<line fill="none" stroke="#000000" stroke-miterlimit="10" stroke-dasharray="1,5" x1="0" y1="486" x2="1280" y2="486"/>
	<line fill="none" stroke="#000000" stroke-miterlimit="10" stroke-dasharray="1,5" x1="0" y1="492" x2="1280" y2="492"/>
	<line fill="none" stroke="#000000" stroke-miterlimit="10" stroke-dasharray="1,5" x1="0" y1="498" x2="1280" y2="498"/>
	<line fill="none" stroke="#000000" stroke-miterlimit="10" stroke-dasharray="1,5" x1="0" y1="504" x2="1280" y2="504"/>
	<line fill="none" stroke="#000000" stroke-miterlimit="10" stroke-dasharray="1,5" x1="0" y1="510" x2="1280" y2="510"/>
	<line fill="none" stroke="#000000" stroke-miterlimit="10" stroke-dasharray="1,5" x1="0" y1="516" x2="1280" y2="516"/>
	<line fill="none" stroke="#000000" stroke-miterlimit="10" stroke-dasharray="1,5" x1="0" y1="522" x2="1280" y2="522"/>
	<line fill="none" stroke="#000000" stroke-miterlimit="10" stroke-dasharray="1,5" x1="0" y1="528" x2="1280" y2="528"/>
	<line fill="none" stroke="#000000" stroke-miterlimit="10" stroke-dasharray="1,5" x1="0" y1="534" x2="1280" y2="534"/>
	<line fill="none" stroke="#000000" stroke-miterlimit="10" stroke-dasharray="1,5" x1="0" y1="540" x2="1280" y2="540"/>
	<line fill="none" stroke="#000000" stroke-miterlimit="10" stroke-dasharray="1,5" x1="0" y1="546" x2="1280" y2="546"/>
	<line fill="none" stroke="#000000" stroke-miterlimit="10" stroke-dasharray="1,5" x1="0" y1="552" x2="1280" y2="552"/>
	<line fill="none" stroke="#000000" stroke-miterlimit="10" stroke-dasharray="1,5" x1="0" y1="558" x2="1280" y2="558"/>
	<line fill="none" stroke="#000000" stroke-miterlimit="10" stroke-dasharray="1,5" x1="0" y1="564" x2="1280" y2="564"/>
	<line fill="none" stroke="#000000" stroke-miterlimit="10" stroke-dasharray="1,5" x1="0" y1="570" x2="1280" y2="570"/>
	<line fill="none" stroke="#000000" stroke-miterlimit="10" stroke-dasharray="1,5" x1="0" y1="576" x2="1280" y2="576"/>
	<line fill="none" stroke="#000000" stroke-miterlimit="10" stroke-dasharray="1,5" x1="0" y1="582" x2="1280" y2="582"/>
	<line fill="none" stroke="#000000" stroke-miterlimit="10" stroke-dasharray="1,5" x1="0" y1="588" x2="1280" y2="588"/>
	<line fill="none" stroke="#000000" stroke-miterlimit="10" stroke-dasharray="1,5" x1="0" y1="594" x2="1280" y2="594"/>
	<line fill="none" stroke="#000000" stroke-miterlimit="10" stroke-dasharray="1,5" x1="0" y1="600" x2="1280" y2="600"/>
	<line fill="none" stroke="#000000" stroke-miterlimit="10" stroke-dasharray="1,5" x1="0" y1="606" x2="1280" y2="606"/>
	<line fill="none" stroke="#000000" stroke-miterlimit="10" stroke-dasharray="1,5" x1="0" y1="612" x2="1280" y2="612"/>
	<line fill="none" stroke="#000000" stroke-miterlimit="10" stroke-dasharray="1,5" x1="0" y1="618" x2="1280" y2="618"/>
	<line fill="none" stroke="#000000" stroke-miterlimit="10" stroke-dasharray="1,5" x1="0" y1="624" x2="1280" y2="624"/>
	<line fill="none" stroke="#000000" stroke-miterlimit="10" stroke-dasharray="1,5" x1="0" y1="630" x2="1280" y2="630"/>
	<line fill="none" stroke="#000000" stroke-miterlimit="10" stroke-dasharray="1,5" x1="0" y1="636" x2="1280" y2="636"/>
	<line fill="none" stroke="#000000" stroke-miterlimit="10" stroke-dasharray="1,5" x1="0" y1="642" x2="1280" y2="642"/>
	<line fill="none" stroke="#000000" stroke-miterlimit="10" stroke-dasharray="1,5" x1="0" y1="648" x2="1280" y2="648"/>
	<line fill="none" stroke="#000000" stroke-miterlimit="10" stroke-dasharray="1,5" x1="0" y1="654" x2="1280" y2="654"/>
	<line fill="none" stroke="#000000" stroke-miterlimit="10" stroke-dasharray="1,5" x1="0" y1="660" x2="1280" y2="660"/>
	<line fill="none" stroke="#000000" stroke-miterlimit="10" stroke-dasharray="1,5" x1="0" y1="666" x2="1280" y2="666"/>
	<line fill="none" stroke="#000000" stroke-miterlimit="10" stroke-dasharray="1,5" x1="0" y1="672" x2="1280" y2="672"/>
	<line fill="none" stroke="#000000" stroke-miterlimit="10" stroke-dasharray="1,5" x1="0" y1="678" x2="1280" y2="678"/>
	<line fill="none" stroke="#000000" stroke-miterlimit="10" stroke-dasharray="1,5" x1="0" y1="684" x2="1280" y2="684"/>
	<line fill="none" stroke="#000000" stroke-miterlimit="10" stroke-dasharray="1,5" x1="0" y1="690" x2="1280" y2="690"/>
	<line fill="none" stroke="#000000" stroke-miterlimit="10" stroke-dasharray="1,5" x1="0" y1="696" x2="1280" y2="696"/>
	<line fill="none" stroke="#000000" stroke-miterlimit="10" stroke-dasharray="1,5" x1="0" y1="702" x2="1280" y2="702"/>
	<line fill="none" stroke="#000000" stroke-miterlimit="10" stroke-dasharray="1,5" x1="0" y1="708" x2="1280" y2="708"/>
	<line fill="none" stroke="#000000" stroke-miterlimit="10" stroke-dasharray="1,5" x1="0" y1="714" x2="1280" y2="714"/>
	<line fill="none" stroke="#000000" stroke-miterlimit="10" stroke-dasharray="1,5" x1="0" y1="720" x2="1280" y2="720"/>
	<line fill="none" stroke="#000000" stroke-miterlimit="10" stroke-dasharray="1,5" x1="0" y1="726" x2="1280" y2="726"/>
	<line fill="none" stroke="#000000" stroke-miterlimit="10" stroke-dasharray="1,5" x1="0" y1="732" x2="1280" y2="732"/>
	<line fill="none" stroke="#000000" stroke-miterlimit="10" stroke-dasharray="1,5" x1="0" y1="738" x2="1280" y2="738"/>
	<line fill="none" stroke="#000000" stroke-miterlimit="10" stroke-dasharray="1,5" x1="0" y1="744" x2="1280" y2="744"/>
	<line fill="none" stroke="#000000" stroke-miterlimit="10" stroke-dasharray="1,5" x1="0" y1="750" x2="1280" y2="750"/>
	<line fill="none" stroke="#000000" stroke-miterlimit="10" stroke-dasharray="1,5" x1="0" y1="756" x2="1280" y2="756"/>
	<line fill="none" stroke="#000000" stroke-miterlimit="10" stroke-dasharray="1,5" x1="0" y1="762" x2="1280" y2="762"/>
	<line fill="none" stroke="#000000" stroke-miterlimit="10" stroke-dasharray="1,5" x1="0" y1="768" x2="1280" y2="768"/>
	<line fill="none" stroke="#000000" stroke-miterlimit="10" stroke-dasharray="1,5" x1="0" y1="774" x2="1280" y2="774"/>
	<line fill="none" stroke="#000000" stroke-miterlimit="10" stroke-dasharray="1,5" x1="0" y1="780" x2="1280" y2="780"/>
	<line fill="none" stroke="#000000" stroke-miterlimit="10" stroke-dasharray="1,5" x1="0" y1="786" x2="1280" y2="786"/>
	<line fill="none" stroke="#000000" stroke-miterlimit="10" stroke-dasharray="1,5" x1="0" y1="792" x2="1280" y2="792"/>
	<line fill="none" stroke="#000000" stroke-miterlimit="10" stroke-dasharray="1,5" x1="0" y1="798" x2="1280" y2="798"/>
	<line fill="none" stroke="#000000" stroke-miterlimit="10" stroke-dasharray="1,5" x1="0" y1="804" x2="1280" y2="804"/>
	<line fill="none" stroke="#000000" stroke-miterlimit="10" stroke-dasharray="1,5" x1="0" y1="810" x2="1280" y2="810"/>
	<line fill="none" stroke="#000000" stroke-miterlimit="10" stroke-dasharray="1,5" x1="0" y1="816" x2="1280" y2="816"/>
	<line fill="none" stroke="#000000" stroke-miterlimit="10" stroke-dasharray="1,5" x1="0" y1="822" x2="1280" y2="822"/>
	<line fill="none" stroke="#000000" stroke-miterlimit="10" stroke-dasharray="1,5" x1="0" y1="828" x2="1280" y2="828"/>
	<line fill="none" stroke="#000000" stroke-miterlimit="10" stroke-dasharray="1,5" x1="0" y1="834" x2="1280" y2="834"/>
	<line fill="none" stroke="#000000" stroke-miterlimit="10" stroke-dasharray="1,5" x1="0" y1="840" x2="1280" y2="840"/>
	<line fill="none" stroke="#000000" stroke-miterlimit="10" stroke-dasharray="1,5" x1="0" y1="846" x2="1280" y2="846"/>
	<line fill="none" stroke="#000000" stroke-miterlimit="10" stroke-dasharray="1,5" x1="0" y1="852" x2="1280" y2="852"/>
	<line fill="none" stroke="#000000" stroke-miterlimit="10" stroke-dasharray="1,5" x1="0" y1="858" x2="1280" y2="858"/>
	<line fill="none" stroke="#000000" stroke-miterlimit="10" stroke-dasharray="1,5" x1="0" y1="864" x2="1280" y2="864"/>
	<line fill="none" stroke="#000000" stroke-miterlimit="10" stroke-dasharray="1,5" x1="0" y1="870" x2="1280" y2="870"/>
	<line fill="none" stroke="#000000" stroke-miterlimit="10" stroke-dasharray="1,5" x1="0" y1="876" x2="1280" y2="876"/>
	<line fill="none" stroke="#000000" stroke-miterlimit="10" stroke-dasharray="1,5" x1="0" y1="882" x2="1280" y2="882"/>
	<line fill="none" stroke="#000000" stroke-miterlimit="10" stroke-dasharray="1,5" x1="0" y1="888" x2="1280" y2="888"/>
	<line fill="none" stroke="#000000" stroke-miterlimit="10" stroke-dasharray="1,5" x1="0" y1="894" x2="1280" y2="894"/>
	<line fill="none" stroke="#000000" stroke-miterlimit="10" stroke-dasharray="1,5" x1="0" y1="900" x2="1280" y2="900"/>
	<line fill="none" stroke="#000000" stroke-miterlimit="10" stroke-dasharray="1,5" x1="0" y1="906" x2="1280" y2="906"/>
	<line fill="none" stroke="#000000" stroke-miterlimit="10" stroke-dasharray="1,5" x1="0" y1="912" x2="1280" y2="912"/>
	<line fill="none" stroke="#000000" stroke-miterlimit="10" stroke-dasharray="1,5" x1="0" y1="918" x2="1280" y2="918"/>
	<line fill="none" stroke="#000000" stroke-miterlimit="10" stroke-dasharray="1,5" x1="0" y1="924" x2="1280" y2="924"/>
	<line fill="none" stroke="#000000" stroke-miterlimit="10" stroke-dasharray="1,5" x1="0" y1="930" x2="1280" y2="930"/>
	<line fill="none" stroke="#000000" stroke-miterlimit="10" stroke-dasharray="1,5" x1="0" y1="936" x2="1280" y2="936"/>
	<line fill="none" stroke="#000000" stroke-miterlimit="10" stroke-dasharray="1,5" x1="0" y1="942" x2="1280" y2="942"/>
	<line fill="none" stroke="#000000" stroke-miterlimit="10" stroke-dasharray="1,5" x1="0" y1="948" x2="1280" y2="948"/>
	<line fill="none" stroke="#000000" stroke-miterlimit="10" stroke-dasharray="1,5" x1="0" y1="954" x2="1280" y2="954"/>
	<line fill="none" stroke="#000000" stroke-miterlimit="10" stroke-dasharray="1,5" x1="0" y1="960" x2="1280" y2="960"/>
	<line fill="none" stroke="#000000" stroke-miterlimit="10" stroke-dasharray="1,5" x1="0" y1="966" x2="1280" y2="966"/>
	<line fill="none" stroke="#000000" stroke-miterlimit="10" stroke-dasharray="1,5" x1="0" y1="972" x2="1280" y2="972"/>
	<line fill="none" stroke="#000000" stroke-miterlimit="10" stroke-dasharray="1,5" x1="0" y1="978" x2="1280" y2="978"/>
	<line fill="none" stroke="#000000" stroke-miterlimit="10" stroke-dasharray="1,5" x1="0" y1="984" x2="1280" y2="984"/>
	<line fill="none" stroke="#000000" stroke-miterlimit="10" stroke-dasharray="1,5" x1="0" y1="990" x2="1280" y2="990"/>
	<line fill="none" stroke="#000000" stroke-miterlimit="10" stroke-dasharray="1,5" x1="0" y1="996" x2="1280" y2="996"/>
	<line fill="none" stroke="#000000" stroke-miterlimit="10" stroke-dasharray="1,5" x1="0" y1="1002" x2="1280" y2="1002"/>
	<line fill="none" stroke="#000000" stroke-miterlimit="10" stroke-dasharray="1,5" x1="0" y1="1008" x2="1280" y2="1008"/>
	<line fill="none" stroke="#000000" stroke-miterlimit="10" stroke-dasharray="1,5" x1="0" y1="1014" x2="1280" y2="1014"/>
	<line fill="none" stroke="#000000" stroke-miterlimit="10" stroke-dasharray="1,5" x1="0" y1="1020" x2="1280" y2="1020"/>
	<line fill="none" stroke="#000000" stroke-miterlimit="10" stroke-dasharray="1,5" x1="0" y1="1026" x2="1280" y2="1026"/>
	<line fill="none" stroke="#000000" stroke-miterlimit="10" stroke-dasharray="1,5" x1="0" y1="1032" x2="1280" y2="1032"/>
	<line fill="none" stroke="#000000" stroke-miterlimit="10" stroke-dasharray="1,5" x1="0" y1="1038" x2="1280" y2="1038"/>
	<line fill="none" stroke="#000000" stroke-miterlimit="10" stroke-dasharray="1,5" x1="0" y1="1044" x2="1280" y2="1044"/>
	<line fill="none" stroke="#000000" stroke-miterlimit="10" stroke-dasharray="1,5" x1="0" y1="1050" x2="1280" y2="1050"/>
	<line fill="none" stroke="#000000" stroke-miterlimit="10" stroke-dasharray="1,5" x1="0" y1="1056" x2="1280" y2="1056"/>
	<line fill="none" stroke="#000000" stroke-miterlimit="10" stroke-dasharray="1,5" x1="0" y1="1062" x2="1280" y2="1062"/>
	<line fill="none" stroke="#000000" stroke-miterlimit="10" stroke-dasharray="1,5" x1="0" y1="1068" x2="1280" y2="1068"/>
	<line fill="none" stroke="#000000" stroke-miterlimit="10" stroke-dasharray="1,5" x1="0" y1="1074" x2="1280" y2="1074"/>
</g>
<g id="Layer_8">
</g>
<g id="Capa_1">
</g>
<g id="Layer_1">
</g>
<g id="Your_Icon">
</g>
<g id="Слой_1">
</g>
<g id="Calque_1">
</g>
<g id="Icons">
</g>
</svg>
