<?xml version="1.0" encoding="utf-8"?>
<!-- Generator: Adobe Illustrator 16.0.0, SVG Export Plug-In . SVG Version: 6.00 Build 0)  -->
<!DOCTYPE svg PUBLIC "-//W3C//DTD SVG 1.1//EN" "http://www.w3.org/Graphics/SVG/1.1/DTD/svg11.dtd">
<svg version="1.1" xmlns="http://www.w3.org/2000/svg" xmlns:xlink="http://www.w3.org/1999/xlink" x="0px" y="0px" width="1280px"
	 height="1173px" viewBox="0 0 1280 1173" enable-background="new 0 0 1280 1173" xml:space="preserve">
<g id="Layer_3">
	<line fill="none" stroke="#000000" stroke-miterlimit="10" stroke-dasharray="1,10" x1="0" y1="0" x2="1280" y2="0"/>
	<line fill="none" stroke="#000000" stroke-miterlimit="10" stroke-dasharray="1,10" x1="0" y1="10" x2="1280" y2="10"/>
	<line fill="none" stroke="#000000" stroke-miterlimit="10" stroke-dasharray="1,10" x1="0" y1="20" x2="1280" y2="20"/>
	<line fill="none" stroke="#000000" stroke-miterlimit="10" stroke-dasharray="1,10" x1="0" y1="30" x2="1280" y2="30"/>
	<line fill="none" stroke="#000000" stroke-miterlimit="10" stroke-dasharray="1,10" x1="0" y1="40" x2="1280" y2="40"/>
	<line fill="none" stroke="#000000" stroke-miterlimit="10" stroke-dasharray="1,10" x1="0" y1="50" x2="1280" y2="50"/>
	<line fill="none" stroke="#000000" stroke-miterlimit="10" stroke-dasharray="1,10" x1="0" y1="60" x2="1280" y2="60"/>
	<line fill="none" stroke="#000000" stroke-miterlimit="10" stroke-dasharray="1,10" x1="0" y1="70" x2="1280" y2="70"/>
	<line fill="none" stroke="#000000" stroke-miterlimit="10" stroke-dasharray="1,10" x1="0" y1="80" x2="1280" y2="80"/>
	<line fill="none" stroke="#000000" stroke-miterlimit="10" stroke-dasharray="1,10" x1="0" y1="90" x2="1280" y2="90"/>
	<line fill="none" stroke="#000000" stroke-miterlimit="10" stroke-dasharray="1,10" x1="0" y1="100" x2="1280" y2="100"/>
	<line fill="none" stroke="#000000" stroke-miterlimit="10" stroke-dasharray="1,10" x1="0" y1="110" x2="1280" y2="110"/>
	<line fill="none" stroke="#000000" stroke-miterlimit="10" stroke-dasharray="1,10" x1="0" y1="120" x2="1280" y2="120"/>
	<line fill="none" stroke="#000000" stroke-miterlimit="10" stroke-dasharray="1,10" x1="0" y1="130" x2="1280" y2="130"/>
	<line fill="none" stroke="#000000" stroke-miterlimit="10" stroke-dasharray="1,10" x1="0" y1="140" x2="1280" y2="140"/>
	<line fill="none" stroke="#000000" stroke-miterlimit="10" stroke-dasharray="1,10" x1="0" y1="150" x2="1280" y2="150"/>
	<line fill="none" stroke="#000000" stroke-miterlimit="10" stroke-dasharray="1,10" x1="0" y1="160" x2="1280" y2="160"/>
	<line fill="none" stroke="#000000" stroke-miterlimit="10" stroke-dasharray="1,10" x1="0" y1="170" x2="1280" y2="170"/>
	<line fill="none" stroke="#000000" stroke-miterlimit="10" stroke-dasharray="1,10" x1="0" y1="180" x2="1280" y2="180"/>
	<line fill="none" stroke="#000000" stroke-miterlimit="10" stroke-dasharray="1,10" x1="0" y1="190" x2="1280" y2="190"/>
	<line fill="none" stroke="#000000" stroke-miterlimit="10" stroke-dasharray="1,10" x1="0" y1="200" x2="1280" y2="200"/>
	<line fill="none" stroke="#000000" stroke-miterlimit="10" stroke-dasharray="1,10" x1="0" y1="210" x2="1280" y2="210"/>
	<line fill="none" stroke="#000000" stroke-miterlimit="10" stroke-dasharray="1,10" x1="0" y1="220" x2="1280" y2="220"/>
	<line fill="none" stroke="#000000" stroke-miterlimit="10" stroke-dasharray="1,10" x1="0" y1="230" x2="1280" y2="230"/>
	<line fill="none" stroke="#000000" stroke-miterlimit="10" stroke-dasharray="1,10" x1="0" y1="240" x2="1280" y2="240"/>
	<line fill="none" stroke="#000000" stroke-miterlimit="10" stroke-dasharray="1,10" x1="0" y1="250" x2="1280" y2="250"/>
	<line fill="none" stroke="#000000" stroke-miterlimit="10" stroke-dasharray="1,10" x1="0" y1="260" x2="1280" y2="260"/>
	<line fill="none" stroke="#000000" stroke-miterlimit="10" stroke-dasharray="1,10" x1="0" y1="270" x2="1280" y2="270"/>
	<line fill="none" stroke="#000000" stroke-miterlimit="10" stroke-dasharray="1,10" x1="0" y1="280" x2="1280" y2="280"/>
	<line fill="none" stroke="#000000" stroke-miterlimit="10" stroke-dasharray="1,10" x1="0" y1="290" x2="1280" y2="290"/>
	<line fill="none" stroke="#000000" stroke-miterlimit="10" stroke-dasharray="1,10" x1="0" y1="300" x2="1280" y2="300"/>
	<line fill="none" stroke="#000000" stroke-miterlimit="10" stroke-dasharray="1,10" x1="0" y1="310" x2="1280" y2="310"/>
	<line fill="none" stroke="#000000" stroke-miterlimit="10" stroke-dasharray="1,10" x1="0" y1="320" x2="1280" y2="320"/>
	<line fill="none" stroke="#000000" stroke-miterlimit="10" stroke-dasharray="1,10" x1="0" y1="330" x2="1280" y2="330"/>
	<line fill="none" stroke="#000000" stroke-miterlimit="10" stroke-dasharray="1,10" x1="0" y1="340" x2="1280" y2="340"/>
	<line fill="none" stroke="#000000" stroke-miterlimit="10" stroke-dasharray="1,10" x1="0" y1="350" x2="1280" y2="350"/>
	<line fill="none" stroke="#000000" stroke-miterlimit="10" stroke-dasharray="1,10" x1="0" y1="360" x2="1280" y2="360"/>
	<line fill="none" stroke="#000000" stroke-miterlimit="10" stroke-dasharray="1,10" x1="0" y1="370" x2="1280" y2="370"/>
	<line fill="none" stroke="#000000" stroke-miterlimit="10" stroke-dasharray="1,10" x1="0" y1="380" x2="1280" y2="380"/>
	<line fill="none" stroke="#000000" stroke-miterlimit="10" stroke-dasharray="1,10" x1="0" y1="390" x2="1280" y2="390"/>
	<line fill="none" stroke="#000000" stroke-miterlimit="10" stroke-dasharray="1,10" x1="0" y1="400" x2="1280" y2="400"/>
	<line fill="none" stroke="#000000" stroke-miterlimit="10" stroke-dasharray="1,10" x1="0" y1="410" x2="1280" y2="410"/>
	<line fill="none" stroke="#000000" stroke-miterlimit="10" stroke-dasharray="1,10" x1="0" y1="420" x2="1280" y2="420"/>
	<line fill="none" stroke="#000000" stroke-miterlimit="10" stroke-dasharray="1,10" x1="0" y1="430" x2="1280" y2="430"/>
	<line fill="none" stroke="#000000" stroke-miterlimit="10" stroke-dasharray="1,10" x1="0" y1="440" x2="1280" y2="440"/>
	<line fill="none" stroke="#000000" stroke-miterlimit="10" stroke-dasharray="1,10" x1="0" y1="450" x2="1280" y2="450"/>
	<line fill="none" stroke="#000000" stroke-miterlimit="10" stroke-dasharray="1,10" x1="0" y1="460" x2="1280" y2="460"/>
	<line fill="none" stroke="#000000" stroke-miterlimit="10" stroke-dasharray="1,10" x1="0" y1="470" x2="1280" y2="470"/>
	<line fill="none" stroke="#000000" stroke-miterlimit="10" stroke-dasharray="1,10" x1="0" y1="480" x2="1280" y2="480"/>
	<line fill="none" stroke="#000000" stroke-miterlimit="10" stroke-dasharray="1,10" x1="0" y1="490" x2="1280" y2="490"/>
	<line fill="none" stroke="#000000" stroke-miterlimit="10" stroke-dasharray="1,10" x1="0" y1="500" x2="1280" y2="500"/>
	<line fill="none" stroke="#000000" stroke-miterlimit="10" stroke-dasharray="1,10" x1="0" y1="510" x2="1280" y2="510"/>
	<line fill="none" stroke="#000000" stroke-miterlimit="10" stroke-dasharray="1,10" x1="0" y1="520" x2="1280" y2="520"/>
	<line fill="none" stroke="#000000" stroke-miterlimit="10" stroke-dasharray="1,10" x1="0" y1="530" x2="1280" y2="530"/>
	<line fill="none" stroke="#000000" stroke-miterlimit="10" stroke-dasharray="1,10" x1="0" y1="540" x2="1280" y2="540"/>
	<line fill="none" stroke="#000000" stroke-miterlimit="10" stroke-dasharray="1,10" x1="0" y1="550" x2="1280" y2="550"/>
	<line fill="none" stroke="#000000" stroke-miterlimit="10" stroke-dasharray="1,10" x1="0" y1="560" x2="1280" y2="560"/>
	<line fill="none" stroke="#000000" stroke-miterlimit="10" stroke-dasharray="1,10" x1="0" y1="570" x2="1280" y2="570"/>
	<line fill="none" stroke="#000000" stroke-miterlimit="10" stroke-dasharray="1,10" x1="0" y1="580" x2="1280" y2="580"/>
	<line fill="none" stroke="#000000" stroke-miterlimit="10" stroke-dasharray="1,10" x1="0" y1="590" x2="1280" y2="590"/>
	<line fill="none" stroke="#000000" stroke-miterlimit="10" stroke-dasharray="1,10" x1="0" y1="600" x2="1280" y2="600"/>
	<line fill="none" stroke="#000000" stroke-miterlimit="10" stroke-dasharray="1,10" x1="0" y1="610" x2="1280" y2="610"/>
	<line fill="none" stroke="#000000" stroke-miterlimit="10" stroke-dasharray="1,10" x1="0" y1="620" x2="1280" y2="620"/>
	<line fill="none" stroke="#000000" stroke-miterlimit="10" stroke-dasharray="1,10" x1="0" y1="630" x2="1280" y2="630"/>
	<line fill="none" stroke="#000000" stroke-miterlimit="10" stroke-dasharray="1,10" x1="0" y1="640" x2="1280" y2="640"/>
	<line fill="none" stroke="#000000" stroke-miterlimit="10" stroke-dasharray="1,10" x1="0" y1="650" x2="1280" y2="650"/>
	<line fill="none" stroke="#000000" stroke-miterlimit="10" stroke-dasharray="1,10" x1="0" y1="660" x2="1280" y2="660"/>
	<line fill="none" stroke="#000000" stroke-miterlimit="10" stroke-dasharray="1,10" x1="0" y1="670" x2="1280" y2="670"/>
	<line fill="none" stroke="#000000" stroke-miterlimit="10" stroke-dasharray="1,10" x1="0" y1="680" x2="1280" y2="680"/>
	<line fill="none" stroke="#000000" stroke-miterlimit="10" stroke-dasharray="1,10" x1="0" y1="690" x2="1280" y2="690"/>
	<line fill="none" stroke="#000000" stroke-miterlimit="10" stroke-dasharray="1,10" x1="0" y1="700" x2="1280" y2="700"/>
	<line fill="none" stroke="#000000" stroke-miterlimit="10" stroke-dasharray="1,10" x1="0" y1="710" x2="1280" y2="710"/>
	<line fill="none" stroke="#000000" stroke-miterlimit="10" stroke-dasharray="1,10" x1="0" y1="720" x2="1280" y2="720"/>
	<line fill="none" stroke="#000000" stroke-miterlimit="10" stroke-dasharray="1,10" x1="0" y1="730" x2="1280" y2="730"/>
	<line fill="none" stroke="#000000" stroke-miterlimit="10" stroke-dasharray="1,10" x1="0" y1="740" x2="1280" y2="740"/>
	<line fill="none" stroke="#000000" stroke-miterlimit="10" stroke-dasharray="1,10" x1="0" y1="750" x2="1280" y2="750"/>
	<line fill="none" stroke="#000000" stroke-miterlimit="10" stroke-dasharray="1,10" x1="0" y1="760" x2="1280" y2="760"/>
	<line fill="none" stroke="#000000" stroke-miterlimit="10" stroke-dasharray="1,10" x1="0" y1="770" x2="1280" y2="770"/>
	<line fill="none" stroke="#000000" stroke-miterlimit="10" stroke-dasharray="1,10" x1="0" y1="780" x2="1280" y2="780"/>
	<line fill="none" stroke="#000000" stroke-miterlimit="10" stroke-dasharray="1,10" x1="0" y1="790" x2="1280" y2="790"/>
	<line fill="none" stroke="#000000" stroke-miterlimit="10" stroke-dasharray="1,10" x1="0" y1="800" x2="1280" y2="800"/>
	<line fill="none" stroke="#000000" stroke-miterlimit="10" stroke-dasharray="1,10" x1="0" y1="810" x2="1280" y2="810"/>
	<line fill="none" stroke="#000000" stroke-miterlimit="10" stroke-dasharray="1,10" x1="0" y1="820" x2="1280" y2="820"/>
	<line fill="none" stroke="#000000" stroke-miterlimit="10" stroke-dasharray="1,10" x1="0" y1="830" x2="1280" y2="830"/>
	<line fill="none" stroke="#000000" stroke-miterlimit="10" stroke-dasharray="1,10" x1="0" y1="840" x2="1280" y2="840"/>
	<line fill="none" stroke="#000000" stroke-miterlimit="10" stroke-dasharray="1,10" x1="0" y1="850" x2="1280" y2="850"/>
	<line fill="none" stroke="#000000" stroke-miterlimit="10" stroke-dasharray="1,10" x1="0" y1="860" x2="1280" y2="860"/>
	<line fill="none" stroke="#000000" stroke-miterlimit="10" stroke-dasharray="1,10" x1="0" y1="870" x2="1280" y2="870"/>
	<line fill="none" stroke="#000000" stroke-miterlimit="10" stroke-dasharray="1,10" x1="0" y1="880" x2="1280" y2="880"/>
	<line fill="none" stroke="#000000" stroke-miterlimit="10" stroke-dasharray="1,10" x1="0" y1="890" x2="1280" y2="890"/>
	<line fill="none" stroke="#000000" stroke-miterlimit="10" stroke-dasharray="1,10" x1="0" y1="900" x2="1280" y2="900"/>
	<line fill="none" stroke="#000000" stroke-miterlimit="10" stroke-dasharray="1,10" x1="0" y1="910" x2="1280" y2="910"/>
	<line fill="none" stroke="#000000" stroke-miterlimit="10" stroke-dasharray="1,10" x1="0" y1="920" x2="1280" y2="920"/>
	<line fill="none" stroke="#000000" stroke-miterlimit="10" stroke-dasharray="1,10" x1="0" y1="930" x2="1280" y2="930"/>
	<line fill="none" stroke="#000000" stroke-miterlimit="10" stroke-dasharray="1,10" x1="0" y1="940" x2="1280" y2="940"/>
	<line fill="none" stroke="#000000" stroke-miterlimit="10" stroke-dasharray="1,10" x1="0" y1="950" x2="1280" y2="950"/>
	<line fill="none" stroke="#000000" stroke-miterlimit="10" stroke-dasharray="1,10" x1="0" y1="960" x2="1280" y2="960"/>
	<line fill="none" stroke="#000000" stroke-miterlimit="10" stroke-dasharray="1,10" x1="0" y1="970" x2="1280" y2="970"/>
	<line fill="none" stroke="#000000" stroke-miterlimit="10" stroke-dasharray="1,10" x1="0" y1="980" x2="1280" y2="980"/>
	<line fill="none" stroke="#000000" stroke-miterlimit="10" stroke-dasharray="1,10" x1="0" y1="990" x2="1280" y2="990"/>
	<line fill="none" stroke="#000000" stroke-miterlimit="10" stroke-dasharray="1,10" x1="0" y1="1000" x2="1280" y2="1000"/>
	<line fill="none" stroke="#000000" stroke-miterlimit="10" stroke-dasharray="1,10" x1="0" y1="1010" x2="1280" y2="1010"/>
	<line fill="none" stroke="#000000" stroke-miterlimit="10" stroke-dasharray="1,10" x1="0" y1="1020" x2="1280" y2="1020"/>
	<line fill="none" stroke="#000000" stroke-miterlimit="10" stroke-dasharray="1,10" x1="0" y1="1030" x2="1280" y2="1030"/>
	<line fill="none" stroke="#000000" stroke-miterlimit="10" stroke-dasharray="1,10" x1="0" y1="1040" x2="1280" y2="1040"/>
	<line fill="none" stroke="#000000" stroke-miterlimit="10" stroke-dasharray="1,10" x1="0" y1="1050" x2="1280" y2="1050"/>
	<line fill="none" stroke="#000000" stroke-miterlimit="10" stroke-dasharray="1,10" x1="0" y1="1060" x2="1280" y2="1060"/>
	<line fill="none" stroke="#000000" stroke-miterlimit="10" stroke-dasharray="1,10" x1="0" y1="1070" x2="1280" y2="1070"/>
	<line fill="none" stroke="#000000" stroke-miterlimit="10" stroke-dasharray="1,10" x1="0" y1="1080" x2="1280" y2="1080"/>
	<line fill="none" stroke="#000000" stroke-miterlimit="10" stroke-dasharray="1,10" x1="0" y1="1090" x2="1280" y2="1090"/>
	<line fill="none" stroke="#000000" stroke-miterlimit="10" stroke-dasharray="1,10" x1="0" y1="1100" x2="1280" y2="1100"/>
	<line fill="none" stroke="#000000" stroke-miterlimit="10" stroke-dasharray="1,10" x1="0" y1="1110" x2="1280" y2="1110"/>
	<line fill="none" stroke="#000000" stroke-miterlimit="10" stroke-dasharray="1,10" x1="0" y1="1120" x2="1280" y2="1120"/>
	<line fill="none" stroke="#000000" stroke-miterlimit="10" stroke-dasharray="1,10" x1="0" y1="1130" x2="1280" y2="1130"/>
	<line fill="none" stroke="#000000" stroke-miterlimit="10" stroke-dasharray="1,10" x1="0" y1="1140" x2="1280" y2="1140"/>
	<line fill="none" stroke="#000000" stroke-miterlimit="10" stroke-dasharray="1,10" x1="0" y1="1150" x2="1280" y2="1150"/>
	<line fill="none" stroke="#000000" stroke-miterlimit="10" stroke-dasharray="1,10" x1="0" y1="1160" x2="1280" y2="1160"/>
	<line fill="none" stroke="#000000" stroke-miterlimit="10" stroke-dasharray="1,10" x1="0" y1="1173" x2="1280" y2="1173"/>
</g>
<g id="Layer_8">
</g>
<g id="Capa_1">
</g>
<g id="Layer_1">
</g>
<g id="Your_Icon">
</g>
<g id="Слой_1">
</g>
<g id="Calque_1">
</g>
<g id="Icons">
</g>
</svg>
