<?xml version="1.0" encoding="utf-8"?>
<!-- Generator: Adobe Illustrator 16.0.0, SVG Export Plug-In . SVG Version: 6.00 Build 0)  -->
<!DOCTYPE svg PUBLIC "-//W3C//DTD SVG 1.1//EN" "http://www.w3.org/Graphics/SVG/1.1/DTD/svg11.dtd">
<svg version="1.1" id="Layer_1" xmlns="http://www.w3.org/2000/svg" xmlns:xlink="http://www.w3.org/1999/xlink" x="0px" y="0px"
	 width="512px" height="512px" viewBox="0 0 512 512" enable-background="new 0 0 512 512" xml:space="preserve">
<circle cx="256" cy="255.999" r="208.979"/>
<path fill="#FFFFFF" d="M130.424,219.375l9.474,12.423c0,0,19.536-15.398,26.047-7.699c6.511,7.699,31.373,100.663,39.67,117.812
	c7.243,15.039,27.222,34.92,49.132,20.723c21.898-14.199,94.714-76.367,107.75-149.783c13.023-73.392-87.627-58.018-98.288,5.924
	c26.646-15.997,40.87,6.5,27.233,31.973c-13.611,25.447-26.048,42.045-32.56,42.045c-6.5,0-11.5-17.031-18.947-46.795
	c-7.698-30.771-7.651-86.2-39.657-79.916C170.094,172.005,130.424,219.375,130.424,219.375z"/>
</svg>
